<svg width="882" height="195" viewBox="0 0 882 195" fill="none" xmlns="http://www.w3.org/2000/svg">
<g id="nubeuno">
<path id="sombrauno" d="M339.459 152.286C337.795 149.982 336.67 152.468 341.891 158.08C346.068 162.569 334.267 158.308 327.844 155.617C269.652 153.484 175.678 125.569 128.473 109.389C128.469 109.755 128.532 109.94 128.335 109.906C127.666 109.789 122.984 108.968 119.982 106.429C122.605 107.361 125.443 108.351 128.473 109.389C128.482 108.514 128.875 106.605 134.159 104.218C141.646 100.835 141.859 103.556 143.865 103.907C145.872 104.259 149.787 101.591 152.136 99.9905C154.485 98.3897 151.597 95.2 156.295 91.9985C160.993 88.797 164.565 88.0816 166.914 86.4808C169.263 84.8801 167.874 69.2069 195.511 76.7355C197.447 76.1804 201.589 74.3127 202.672 71.2824C204.026 67.4946 207.24 72.7542 208.35 74.2904C209.46 75.8266 214.484 74.6949 212.233 79.6672C209.983 84.6395 210.423 86.0585 212.316 87.0611C214.209 88.0638 217.88 90.7199 222.121 90.1218C226.363 89.5237 223.215 95.6804 230.702 92.2972C238.19 88.9139 240.311 88.6148 242.986 89.0839C245.662 89.553 248.223 90.6729 250.671 92.4437C253.118 94.2144 262.01 102.482 268.927 102.353C275.844 102.224 276.954 103.76 279.303 102.159C281.652 100.559 275.974 97.5507 274.424 94.5955C272.874 91.6402 274.113 88.5033 275.565 88.0869C277.017 87.6706 281.715 84.4691 280.719 82.282C279.724 80.0949 291.764 82.2058 294.097 84.6274C296.43 87.049 294.569 78.0016 297.587 76.5181C300.605 75.0346 305.956 75.9728 306.952 78.1599C307.947 80.3469 309.104 69.8161 314.113 72.7068C319.121 75.5975 311.504 83.654 320.199 85.1784C328.895 86.7029 328.195 94.6304 329.076 97.4683C329.957 100.306 328.93 106.164 334.95 107.219C340.97 108.275 340.955 112.297 353.305 120.5C365.656 128.703 369.654 133.429 372.998 134.015C375.674 134.485 373.2 139.418 371.629 141.826C374.498 141.003 380.588 141.007 382.257 147.488C381.111 150.327 379.683 155.634 382.055 157.071C384.548 158.581 382.447 164.012 381.085 166.538C368.656 168.44 340.901 154.282 339.459 152.286Z" fill="#F3F3F3"/>
<path id="basenube" d="M5.1292 97.267C3.79587 95.767 3.02919 92.067 10.6292 89.267V81.267C-10.3711 77.2672 2.62867 45.767 24.6292 59.267L34.1287 48.767C26.962 44.6003 16.9287 35.367 34.1287 31.767C34.7953 32.767 36.6287 34.467 38.6287 33.267C40.6287 32.067 41.462 29.1003 41.6287 27.767C39.962 27.267 37.6287 25.267 41.6287 21.267C39.962 16.4336 39.6287 7.56698 51.6287 10.767C52.7953 9.10028 56.4287 6.2669 61.6287 8.26694C63.1287 5.26692 67.5287 -0.233099 73.1287 1.7669C74.6287 0.433556 77.9287 -1.43313 79.1287 1.7669C80.6287 5.76694 84.6287 11.267 92.1287 13.767C90.462 14.6003 87.4287 16.967 88.6287 19.767C89.8287 22.567 94.1287 24.267 96.1287 24.767C96.462 26.6003 96.4287 30.867 93.6287 33.267C95.7953 33.6003 98.5287 35.267 92.1287 39.267C91.6287 41.267 91.7287 44.667 96.1287 42.267C97.7953 42.6003 99.3287 44.8669 92.1287 51.267C95.7953 53.6003 104.829 56.367 111.629 48.767C120.129 39.267 108.629 42.267 128.129 39.267C131.462 36.267 139.229 31.667 143.629 37.267C146.129 34.6003 152.429 30.067 157.629 33.267C159.295 33.9336 163.229 35.267 165.629 35.267C168.629 35.267 172.629 38.267 173.629 42.267C177.795 41.9336 184.429 43.767 177.629 53.767C178.795 55.767 182.529 59.167 188.129 56.767C195.129 53.767 190.129 67.767 182.629 68.267C176.629 68.667 182.129 71.4336 185.629 72.767C186.295 74.1003 184.829 76.367 173.629 74.767V80.767H170.629V85.267C172.295 84.6003 176.329 84.867 179.129 91.267C181.929 97.667 184.629 97.267 185.629 96.267C185.962 91.9336 189.829 83.667 202.629 85.267C215.429 86.867 216.295 89.9336 215.129 91.267C216.295 90.9336 218.729 90.067 219.129 89.267C219.629 88.267 225.129 88.267 225.629 90.267H229.629L241.629 102.267H245.629C245.795 103.6 246.029 106.467 245.629 107.267C245.129 108.267 246.629 114.267 243.629 115.267C244.129 117.267 244.029 121.267 239.629 121.267C239.295 122.6 238.929 125.367 240.129 125.767C241.629 126.267 250.129 129.267 245.129 134.267C246.962 135.434 250.929 137.367 252.129 135.767C253.329 134.167 255.295 135.434 256.129 136.267C257.462 136.6 260.129 136.667 260.129 134.267C260.129 131.267 279.629 127.267 284.129 132.767C288.629 138.267 292.629 131.767 294.129 132.267C295.629 132.767 307.129 138.767 314.629 140.767C322.129 142.767 328.629 138.767 332.629 146.767C334.462 146.767 338.629 147.267 340.629 149.267C341.501 150.139 343.163 149.916 344.916 149.192C344.242 149.287 343.483 149.317 342.629 149.267C334.129 148.767 345.629 143.267 348.129 143.267C350.629 143.267 341.129 134.767 348.629 128.267C356.129 121.767 361.129 125.767 366.629 129.767C372.129 133.767 389.129 118.767 401.129 133.767C402.629 135.767 408.529 140.167 420.129 141.767C431.729 143.367 431.295 146.434 429.629 147.767C431.962 148.934 437.529 150.667 441.129 148.267C445.629 145.267 455.129 145.767 455.629 147.767C456.129 149.767 458.629 144.767 461.629 145.767C464.029 146.567 464.295 147.767 464.129 148.267C464.962 145.934 467.329 141.467 470.129 142.267C472.929 143.067 473.295 144.267 473.129 144.767C474.962 142.934 479.429 139.467 482.629 140.267C486.629 141.267 487.129 144.267 492.129 140.267C497.129 136.267 500.629 136.267 504.129 138.267C504.962 136.6 507.729 133.767 512.129 135.767C514.962 132.434 522.229 126.067 528.629 127.267C528.462 128.1 529.129 129.567 533.129 128.767C538.129 127.767 546.129 124.267 548.629 128.767C547.795 129.934 546.629 132.467 548.629 133.267C551.129 134.267 556.629 133.267 556.629 135.267C556.629 137.267 561.629 136.267 562.129 135.767C562.629 135.267 570.129 136.767 562.129 143.267C555.729 148.467 561.167 151.5 560.5 151.5C560.333 153.333 552.429 154.867 555.629 153.267C559.629 151.267 552.629 145.767 552.129 145.267C551.629 144.767 551.629 151.767 541.629 154.267C541.629 155.267 542.629 158.767 544.629 158.267C546.629 157.767 541.129 164.267 539.129 164.767C537.129 165.267 550.629 168.267 559.629 161.767C568.629 155.267 570.129 169.267 580.129 168.267C588.129 167.467 591.129 168.267 591.629 168.767C592.962 168.267 596.329 167.367 599.129 167.767C602.629 168.267 607.629 152.767 623.129 153.267C635.529 153.667 644.962 165.767 648.129 171.767C649.295 173.934 652.729 177.167 657.129 172.767C661.529 168.367 663.629 170.267 664.129 171.767C666.795 167.6 675.629 162.267 689.629 174.267C690.962 171.767 696.729 165.567 709.129 160.767C707.295 154.934 708.529 144.167 728.129 147.767C729.129 148.267 731.129 148.667 731.129 146.267C731.129 143.267 733.129 133.767 743.629 134.267C745.462 131.267 750.029 125.967 753.629 128.767C756.129 126.434 762.729 125.667 769.129 141.267C769.962 136.6 774.629 129.067 786.629 136.267C790.462 137.434 797.829 138.367 796.629 132.767C795.129 125.767 785.629 124.767 786.629 121.267C787.629 117.767 790.629 115.767 793.629 116.267C795.295 114.1 799.229 110.767 801.629 114.767C804.295 111.434 811.629 107.067 819.629 116.267C824.629 114.1 835.429 112.067 838.629 121.267C842.629 132.767 853.129 129.267 838.629 134.267C841.629 137.434 848.329 143.867 851.129 144.267C853.929 144.667 852.295 148.767 851.129 150.767C853.129 152.6 857.929 155.467 861.129 152.267C863.129 152.267 867.629 154.267 869.629 162.267C872.129 172.267 874.129 161.767 875.629 167.767C876.672 171.94 875.523 172.888 874.548 172.846C877.518 173.464 881.354 175.568 875.629 179.767C878.629 181.267 883.729 185.767 880.129 191.767C875.629 199.267 846.629 190.267 845.129 188.767C843.629 187.267 843.129 189.267 847.629 192.767C851.229 195.567 842.129 193.934 837.129 192.767C544.296 196.267 -32.0704 182.067 5.1292 97.267Z" fill="white"/>
<path id="sombrauno_2" d="M5.1292 97.267C3.79587 95.767 3.02919 92.067 10.6292 89.267V81.267C-10.3711 77.2672 2.62867 45.767 24.6292 59.267L34.1287 48.767C26.962 44.6003 16.9287 35.367 34.1287 31.767C34.7953 32.767 36.6287 34.467 38.6287 33.267C40.6287 32.067 41.462 29.1003 41.6287 27.767C39.962 27.267 37.6287 25.267 41.6287 21.267C41.1291 19.8182 40.7493 18.007 40.7856 16.267C43.2333 13.6003 48.6287 10.867 50.6287 21.267C50.962 21.9337 53.1287 23.067 59.1287 22.267C66.6287 21.267 68.1287 22.267 69.1287 27.767C70.1287 33.267 76.6287 36.267 79.1287 37.767C81.1287 38.967 82.2953 41.267 82.6287 42.267C78.6287 42.9337 69.7287 43.867 66.1287 42.267C61.6287 40.267 77.1287 50.767 76.6287 53.767C76.1287 56.767 65.1287 54.767 66.1287 57.267C67.1287 59.767 74.1287 67.767 74.1287 79.267C72.6287 81.4336 68.9287 85.467 66.1287 84.267C62.6287 82.767 61.6287 86.267 59.1287 85.767C56.6287 85.267 53.1287 81.767 49.1287 84.267C45.1287 86.767 58.6287 85.767 63.1287 89.267C67.6287 92.767 83.1287 95.767 84.1287 101.267C85.7953 101.6 89.4287 102.967 90.6287 105.767C92.1287 109.267 92.6287 111.767 93.6287 108.267C94.6287 104.767 92.1287 95.267 93.6287 94.767C95.1287 94.267 93.1287 94.267 90.6287 91.767C88.1287 89.267 89.1287 86.767 85.6287 84.267C82.8287 82.267 83.462 77.4337 84.1287 75.267C84.6287 74.1003 85.3287 71.467 84.1287 70.267C82.6287 68.767 86.6287 64.767 89.1287 65.767C91.6287 66.767 96.1287 68.267 97.6287 62.767C99.1287 57.267 104.629 61.767 105.129 58.267C105.529 55.467 108.962 51.4535 110.629 49.7968C110.967 49.4769 111.3 49.134 111.629 48.767C112.396 47.9337 114.67 45.667 117.629 43.267C121.326 40.267 122.129 44.767 124.629 45.767C126.629 46.567 131.129 46.1003 133.129 45.767C132.295 46.4237 130.529 47.9431 130.129 48.767C129.629 49.7968 133.629 49.767 136.129 47.267C138.629 44.767 140.129 49.7968 141.129 49.7968C142.129 49.7968 146.629 43.267 147.629 45.267C148.629 47.267 153.629 47.267 155.629 46.267C157.629 45.267 155.629 49.7968 160.129 49.7968C164.629 49.7968 164.129 56.767 162.629 57.767C161.129 58.767 144.129 62.767 147.629 68.267C151.129 73.767 151.129 79.267 155.629 78.767C160.129 78.267 168.629 85.267 170.629 83.017V85.267C162.462 84.6003 145.629 85.267 143.629 93.267C141.129 103.267 153.129 96.267 155.629 97.767C158.129 99.267 150.629 105.767 148.129 106.267C145.629 106.767 139.629 111.767 137.129 113.267C134.629 114.767 131.129 112.267 126.129 119.267C121.129 126.267 119.129 121.767 117.129 121.267C115.129 120.767 114.129 123.767 111.629 125.267C109.129 126.767 108.629 124.267 106.129 122.767C103.629 121.267 102.629 128.767 101.129 127.767C99.6287 126.767 107.129 135.767 116.629 132.767C126.129 129.767 125.129 126.767 130.129 124.767C135.129 122.767 135.629 117.267 138.629 119.267C141.629 121.267 138.129 122.767 139.629 125.267C141.129 127.767 147.129 129.767 149.629 123.767C152.129 117.767 149.629 114.267 154.129 113.767C158.629 113.267 162.129 112.267 165.129 114.767C168.129 117.267 176.629 115.267 175.629 113.767C174.629 112.267 181.129 111.267 183.129 113.267C185.129 115.267 195.629 116.767 191.629 113.267C187.629 109.767 180.629 107.267 183.129 104.767C185.629 102.267 191.129 105.267 191.129 106.767C191.129 108.267 196.129 104.767 196.629 101.767C197.129 98.767 207.129 98.767 208.129 100.267C209.129 101.767 213.129 105.767 217.129 104.767C221.129 103.767 228.629 109.767 217.629 113.267C206.629 116.767 221.629 117.767 223.629 122.767C225.629 127.767 220.129 127.267 216.629 127.267C213.129 127.267 213.129 133.267 222.129 133.767C231.129 134.267 222.129 140.267 195.129 140.767C193.129 142.434 193.529 146.367 211.129 148.767C233.129 151.767 233.129 148.767 233.629 146.767C234.129 144.767 241.629 144.767 242.629 146.767C243.629 148.767 255.129 148.267 257.629 146.767C260.129 145.267 266.629 144.767 268.129 146.767C269.629 148.767 271.629 152.267 274.129 152.267C276.629 152.267 279.129 153.267 279.129 155.767C279.129 158.267 283.129 160.267 285.129 158.767C287.129 157.267 294.629 162.767 285.129 154.767C275.629 146.767 304.129 155.767 299.629 157.267C295.129 158.767 307.629 158.767 310.129 158.267C312.629 157.767 315.629 167.767 320.629 158.267C324.462 159.767 333.129 175.267 337.129 173.267C342.129 170.767 348.629 173.267 348.129 170.267C347.629 167.267 359.129 171.767 358.129 167.767C357.129 163.767 357.629 164.267 354.129 161.767C351.329 159.767 350.962 157.6 351.129 156.767C354.462 153.767 363.329 148.667 372.129 152.267C383.129 156.767 376.129 161.767 385.629 160.767C393.229 159.967 386.462 163.767 382.129 165.767C383.462 166.767 384.929 168.667 380.129 168.267C374.129 167.767 381.629 175.267 383.629 174.267C385.629 173.267 385.629 178.767 380.129 178.267C374.629 177.767 378.129 180.767 385.629 181.267C385.629 179.267 386.829 175.567 391.629 176.767C397.629 178.267 401.629 177.267 401.129 175.267C400.629 173.267 403.629 172.267 406.629 172.267C409.029 172.267 410.295 171.267 410.629 170.767C406.962 169.1 399.529 165.367 399.129 163.767C399.069 163.528 399.009 163.374 398.969 163.29C398.895 163.187 398.913 163.172 398.969 163.29C399.284 163.729 401.276 165.767 409.129 165.767C420.129 165.767 429.129 168.767 435.129 168.267C441.129 167.767 452.129 175.767 459.629 173.267C467.129 170.767 469.129 170.767 469.129 168.767C469.129 166.767 454.629 159.767 452.629 157.267C450.629 154.767 469.129 160.767 473.129 157.267C477.129 153.767 474.629 151.767 473.129 150.767C471.629 149.767 474.129 146.267 476.629 146.267C479.129 146.267 482.129 152.767 484.129 151.767C486.129 150.767 486.129 149.267 487.629 148.767C489.129 148.267 492.129 151.767 494.629 150.267C497.129 148.767 500.129 151.267 501.629 148.767C503.129 146.267 504.629 151.767 506.629 153.267C508.629 154.767 509.129 155.767 506.629 159.267C504.129 162.767 504.629 163.267 505.629 163.767C506.629 164.267 502.129 167.767 505.129 168.267C508.129 168.767 509.129 171.267 513.629 171.267C518.129 171.267 519.629 179.267 520.129 180.267C520.629 181.267 523.629 178.767 522.629 184.767C521.629 190.767 527 187.767 532.5 187.767C538 187.767 540.629 191.767 542.129 187.767C543.629 183.767 551.629 173.267 553.629 174.767C555.629 176.267 557.629 178.767 559.629 179.267C561.629 179.767 566.629 182.267 570.129 180.267C573.629 178.267 575.629 179.767 579.129 180.267C582.629 180.767 586.129 182.767 590.629 181.267C595.129 179.767 595.629 177.267 598.129 176.767C600.629 176.267 606.629 175.267 608.629 173.767C610.629 172.267 614.629 171.767 615.129 174.767L615.176 175.049C615.718 178.319 617.202 187.267 619.629 187.267C622.129 187.267 633.129 185.267 633.129 182.767C633.129 180.267 638.129 176.267 638.629 177.767C639.129 179.267 642.629 184.267 644.129 182.767C645.629 181.267 647.129 178.767 649.629 178.267C652.129 177.767 653.629 185.267 657.629 182.767C661.629 180.267 665.629 178.267 669.629 179.267C673.629 180.267 677.629 181.767 680.129 183.267C682.629 184.767 686.129 184.767 686.629 184.767C687.129 184.767 685.129 183.267 690.129 179.767C695.129 176.267 695.629 178.267 697.129 178.267C698.629 178.267 701.129 175.767 702.629 174.267C704.129 172.767 701.629 170.767 704.629 167.767C707.629 164.767 710.129 163.767 711.629 162.267C713.129 160.767 710.129 149.267 731.129 151.267C732.462 150.6 735.229 148.667 735.629 146.267C736.129 143.267 739.129 146.767 740.129 147.767C741.129 148.767 744.629 147.267 743.629 151.267C742.629 155.267 743.129 156.267 744.629 156.767C746.129 157.267 749.129 158.767 752.129 157.767C755.129 156.767 753.629 161.767 758.629 158.267C763.629 154.767 765.129 154.267 767.129 154.267C769.129 154.267 771.129 154.767 773.129 155.767C775.129 156.767 782.629 161.767 787.629 160.767C792.629 159.767 793.629 160.767 795.129 159.267C796.629 157.767 792.129 156.267 790.629 154.267C789.129 152.267 789.629 149.767 790.629 149.267C791.629 148.767 794.629 145.767 793.629 144.267C792.629 142.767 801.629 142.767 803.629 144.267C805.629 145.767 803.129 139.267 805.129 137.767C807.129 136.267 811.129 136.267 812.129 137.767C813.129 139.267 812.629 131.267 816.629 132.767C820.629 134.267 816.129 141.267 822.629 141.267C829.129 141.267 829.629 147.267 830.629 149.267C831.629 151.267 831.629 155.767 836.129 155.767C840.629 155.767 841.129 158.767 851.129 163.267C861.129 167.767 864.629 170.767 867.129 170.767C869.129 170.767 867.962 174.767 867.129 176.767C869.105 175.779 873.522 174.986 875.556 179.598C875.086 181.864 874.726 186.006 876.629 186.767C878.629 187.567 877.795 191.889 877.129 193.95C868.357 196.992 846.428 190.066 845.129 188.767C843.629 187.267 843.129 189.267 847.629 192.767C851.229 195.567 842.129 193.934 837.129 192.767C544.296 196.267 -32.0704 182.067 5.1292 97.267Z" fill="#F3F3F3"/>
</g>
</svg>
