<svg width="100" height="100" viewBox="0 0 100 100" fill="none" xmlns="http://www.w3.org/2000/svg">
<path fill-rule="evenodd" clip-rule="evenodd" d="M50 0C77.6142 0 100 22.3858 100 50C100 77.6142 77.6142 100 50 100H6.25C2.79822 100 0 97.2018 0 93.75V6.25C0 2.79822 2.79822 0 6.25 0H50ZM48.4375 89.0625C70.0111 89.0625 87.5 71.5736 87.5 50C87.5 28.4264 70.0111 10.9375 48.4375 10.9375C26.8639 10.9375 9.375 28.4264 9.375 50C9.375 71.5736 26.8639 89.0625 48.4375 89.0625Z" fill="white"/>
<path d="M78.375 50.1491C78.375 37.2165 70.1056 26.2154 58.5661 22.1448C55.0683 20.911 51.8125 23.853 51.8125 27.5621V72.7362C51.8125 76.4452 55.0683 79.3873 58.5661 78.1534C70.1056 74.0828 78.375 63.0817 78.375 50.1491Z" fill="white"/>
<path d="M42.4825 21.1111C39.5455 21.7356 36.769 22.7945 34.2236 24.2173C32.4578 25.2043 31.5 27.1415 31.5 29.1644V71.1338C31.5 73.1567 32.4578 75.094 34.2236 76.081C36.769 77.5038 39.5455 78.5626 42.4825 79.1872C45.8588 79.9051 48.6875 77.0384 48.6875 73.5866V26.7116C48.6875 23.2598 45.8588 20.3931 42.4825 21.1111Z" fill="white"/>
<path d="M23.9975 33.6591C20.8409 38.3759 19 44.0478 19 50.1496C19 56.2515 20.8409 61.9233 23.9975 66.6402C25.5104 68.9008 28.6166 67.6339 28.6166 64.9137V35.3856C28.6166 32.6654 25.5104 31.3984 23.9975 33.6591Z" fill="white"/>
</svg>
