<svg width="141" height="30" viewBox="0 0 141 30" fill="none" xmlns="http://www.w3.org/2000/svg">
<path d="M15 0C23.2843 0 30 6.71573 30 15C30 23.2843 23.2843 30 15 30H2C0.895431 30 0 29.1046 0 28V2C5.63733e-08 0.895431 0.895431 0 2 0H15ZM14.5312 3.75C8.05916 3.75 2.8125 8.99666 2.8125 15.4688C2.8125 21.9408 8.05916 27.1875 14.5312 27.1875C21.0033 27.1875 26.25 21.9408 26.25 15.4688C26.25 8.99666 21.0033 3.75 14.5312 3.75Z" fill="#0048FF"/>
<path d="M23.4375 15.4688C23.4375 11.638 21.019 8.37209 17.6255 7.11472C16.5126 6.70235 15.4688 7.64452 15.4688 8.83141V22.1061C15.4688 23.293 16.5126 24.2352 17.6255 23.8228C21.019 22.5654 23.4375 19.2995 23.4375 15.4688Z" fill="#0048FF"/>
<path d="M12.5477 6.78419C11.7332 6.96945 10.9611 7.26634 10.2485 7.65793C9.68117 7.96966 9.375 8.5905 9.375 9.23782V21.6997C9.375 22.347 9.68117 22.9678 10.2485 23.2796C10.9611 23.6712 11.7332 23.9681 12.5477 24.1533C13.6247 24.3983 14.5312 23.4796 14.5312 22.375V8.5625C14.5312 7.45793 13.6247 6.53922 12.5477 6.78419Z" fill="#0048FF"/>
<path d="M7.04609 10.6404C6.14694 12.0315 5.625 13.6892 5.625 15.4688C5.625 17.2483 6.14694 18.906 7.04609 20.2971C7.51862 21.0281 8.50997 20.6262 8.50997 19.7558V11.1817C8.50997 10.3113 7.51862 9.90939 7.04609 10.6404Z" fill="#0048FF"/>
<path d="M124.056 22.2118H118.337V7.76682H124.839L135.281 15.9848V7.76682H141V22.2118H134.646L124.056 13.7608V22.2118Z" fill="#0048FF"/>
<path d="M116.651 22.2118H110.932V7.76682H116.651V22.2118Z" fill="#0048FF"/>
<path d="M105.655 19.8184H90.3628V15.9001H105.655V19.8184ZM99.9152 7.76682L99.7457 8.69875L91.9725 22.2118H85.1101L93.9847 7.76682H99.9152ZM103.558 22.2118L95.785 8.69875L95.7003 7.76682H101.631L110.505 22.2118H103.558Z" fill="#0048FF"/>
<path d="M85.6543 17.8699C85.6543 18.6607 85.499 19.3525 85.1883 19.9456C84.8777 20.5245 84.3623 21.0046 83.6422 21.3859C82.9362 21.7671 81.9689 22.0495 80.7405 22.2331C79.5261 22.4166 78.0082 22.5084 76.1867 22.5084C74.9159 22.5084 73.6168 22.4519 72.2895 22.339C70.9763 22.226 69.7196 22.0777 68.5194 21.8942C67.3333 21.7106 66.2884 21.5059 65.3847 21.28L66.1896 16.705C66.9803 16.8886 67.7922 17.0651 68.6253 17.2345C69.4584 17.3898 70.3409 17.531 71.2729 17.6581C72.2048 17.7852 73.2003 17.884 74.2593 17.9547C75.3324 18.0253 76.5044 18.0606 77.7752 18.0606C78.2977 18.0606 78.7213 18.0606 79.046 18.0606C79.3708 18.0464 79.6179 18.0323 79.7873 18.0182C79.9709 17.99 80.0909 17.9547 80.1474 17.9123C80.218 17.8558 80.2533 17.7852 80.2533 17.7005C80.2533 17.5875 80.2251 17.5169 80.1686 17.4887C80.1262 17.4463 80.0486 17.4181 79.9356 17.404C79.8368 17.3898 79.6956 17.3828 79.512 17.3828L71.7388 17.1286C70.0303 17.0721 68.6959 16.8392 67.7357 16.4297C66.7756 16.0202 66.0978 15.4766 65.7024 14.7988C65.3212 14.1069 65.1306 13.3091 65.1306 12.4054C65.1306 11.2476 65.4906 10.3086 66.2108 9.58843C66.9309 8.8683 68.0323 8.33879 69.5149 7.99991C71.0116 7.66102 72.8967 7.49158 75.17 7.49158C75.7772 7.49158 76.4762 7.51982 77.2669 7.5763C78.0717 7.61866 78.9119 7.68926 79.7873 7.7881C80.6769 7.87282 81.5594 7.98578 82.4349 8.12699C83.3103 8.25407 84.1293 8.40233 84.8918 8.57177L83.9811 12.829C83.3598 12.7019 82.6679 12.589 81.9054 12.4901C81.157 12.3772 80.3522 12.2854 79.4908 12.2148C78.6295 12.1301 77.7187 12.0665 76.7586 12.0242C75.7984 11.9677 74.81 11.9394 73.7933 11.9394C73.0591 11.9394 72.4731 11.9394 72.0353 11.9394C71.5976 11.9394 71.2658 11.9465 71.0399 11.9606C70.8281 11.9747 70.6869 12.003 70.6163 12.0453C70.5598 12.0877 70.5315 12.1583 70.5315 12.2571C70.5315 12.356 70.5527 12.4336 70.5951 12.4901C70.6516 12.5325 70.7433 12.5607 70.8704 12.5749C71.0116 12.5749 71.2093 12.5819 71.4635 12.596L79.2367 12.8714C80.4086 12.9137 81.3971 13.062 82.2019 13.3162C83.0209 13.5703 83.6845 13.9163 84.1929 14.354C84.7012 14.7776 85.0683 15.2859 85.2942 15.879C85.5343 16.472 85.6543 17.1357 85.6543 17.8699Z" fill="#0048FF"/>
<path d="M56.038 22.2118H41V7.76682H56.038C57.1676 7.76682 58.2196 7.87978 59.1939 8.1057C60.1823 8.33162 61.0507 8.71287 61.7991 9.24944C62.5474 9.77188 63.1264 10.4991 63.5359 11.431C63.9595 12.3629 64.1713 13.542 64.1713 14.9681C64.1713 16.4507 63.9595 17.6651 63.5359 18.6111C63.1123 19.5431 62.5263 20.2773 61.7779 20.8139C61.0295 21.3363 60.1611 21.7035 59.1727 21.9153C58.1984 22.1129 57.1535 22.2118 56.038 22.2118ZM46.7187 12.6383V17.3403H55.4662C56.1016 17.3403 56.624 17.298 57.0335 17.2132C57.443 17.1144 57.7466 16.8955 57.9443 16.5566C58.1419 16.2178 58.2408 15.6883 58.2408 14.9681C58.2408 14.2621 58.1419 13.7467 57.9443 13.422C57.7466 13.0972 57.443 12.8854 57.0335 12.7865C56.624 12.6877 56.1016 12.6383 55.4662 12.6383H46.7187Z" fill="#0048FF"/>
</svg>
