<svg width="577" height="69" viewBox="0 0 577 69" fill="none" xmlns="http://www.w3.org/2000/svg">
<path d="M19.9988 8.96L23.4188 8.72V23H20.4188L19.9988 19.49V8.96ZM23.4188 8.72L22.0688 11.42C21.1688 11.26 20.0988 11.11 18.8588 10.97C17.6188 10.83 16.3188 10.72 14.9588 10.64C13.5988 10.54 12.2888 10.49 11.0288 10.49C9.44883 10.49 8.09883 10.65 6.97883 10.97C5.85883 11.29 4.99883 11.82 4.39883 12.56C3.79883 13.28 3.49883 14.25 3.49883 15.47C3.49883 17.25 3.98883 18.52 4.96883 19.28C5.94883 20.04 7.49883 20.42 9.61883 20.42C11.1188 20.42 12.6188 20.26 14.1188 19.94C15.6388 19.6 17.1588 19.16 18.6788 18.62C20.1988 18.06 21.6888 17.48 23.1488 16.88V18.92C22.2488 19.4 21.2588 19.9 20.1788 20.42C19.1188 20.94 17.9788 21.42 16.7588 21.86C15.5588 22.28 14.2988 22.63 12.9788 22.91C11.6788 23.17 10.3488 23.3 8.98883 23.3C7.10883 23.3 5.49883 23.04 4.15883 22.52C2.83883 21.98 1.82883 21.14 1.12883 20C0.428828 18.84 0.0788282 17.36 0.0788282 15.56C0.0788282 13.56 0.548828 11.99 1.48883 10.85C2.44883 9.71 3.76883 8.9 5.44883 8.42C7.14883 7.92 9.12883 7.67 11.3888 7.67C13.7088 7.67 15.8988 7.78 17.9588 8C20.0188 8.22 21.8388 8.46 23.4188 8.72ZM51.5497 23H40.1497V20.18H51.3397C52.8397 20.18 54.1197 20.02 55.1797 19.7C56.2397 19.38 57.0497 18.87 57.6097 18.17C58.1897 17.47 58.4797 16.52 58.4797 15.32C58.4797 13.62 57.9997 12.38 57.0397 11.6C56.0997 10.82 54.6197 10.43 52.5997 10.43C51.0797 10.43 49.5397 10.6 47.9797 10.94C46.4397 11.28 44.8997 11.71 43.3597 12.23C41.8397 12.75 40.3297 13.29 38.8297 13.85V11.42C39.9897 10.82 41.3097 10.23 42.7897 9.65C44.2897 9.07 45.8997 8.59 47.6197 8.21C49.3597 7.81 51.1197 7.61 52.8997 7.61C55.8797 7.61 58.1197 8.24 59.6197 9.5C61.1397 10.76 61.8997 12.7 61.8997 15.32C61.8997 17.16 61.4797 18.65 60.6397 19.79C59.7997 20.91 58.5997 21.73 57.0397 22.25C55.4997 22.75 53.6697 23 51.5497 23ZM38.5597 23V0.499998H41.9797V23H38.5597ZM75.9577 15.44C75.9577 13.58 76.4077 12.08 77.3077 10.94C78.2077 9.8 79.6177 8.96 81.5377 8.42C83.4577 7.88 85.9477 7.61 89.0077 7.61C90.8877 7.61 92.6477 7.72 94.2877 7.94C95.9477 8.14 97.3977 8.39 98.6377 8.69L97.9177 11.48C96.8977 11.26 95.6277 11.05 94.1077 10.85C92.6077 10.65 90.7577 10.55 88.5577 10.55C86.3577 10.55 84.5777 10.7 83.2177 11C81.8777 11.3 80.8977 11.8 80.2777 12.5C79.6777 13.2 79.3777 14.18 79.3777 15.44C79.3777 16.7 79.6777 17.69 80.2777 18.41C80.8977 19.13 81.8777 19.64 83.2177 19.94C84.5777 20.24 86.3577 20.39 88.5577 20.39C90.7577 20.39 92.6077 20.29 94.1077 20.09C95.6277 19.89 96.8977 19.68 97.9177 19.46L98.6377 22.25C97.3977 22.55 95.9677 22.8 94.3477 23C92.7477 23.22 90.9677 23.33 89.0077 23.33C85.9477 23.33 83.4577 23.06 81.5377 22.52C79.6177 21.98 78.2077 21.13 77.3077 19.97C76.4077 18.81 75.9577 17.3 75.9577 15.44ZM134.507 8.87L134.417 11.48C133.537 11.32 132.477 11.17 131.237 11.03C130.017 10.87 128.727 10.74 127.367 10.64C126.027 10.54 124.737 10.49 123.497 10.49C121.937 10.49 120.607 10.66 119.507 11C118.407 11.32 117.557 11.85 116.957 12.59C116.377 13.33 116.087 14.33 116.087 15.59C116.087 17.29 116.587 18.52 117.587 19.28C118.587 20.04 120.167 20.42 122.327 20.42C123.827 20.42 125.327 20.26 126.827 19.94C128.327 19.62 129.827 19.21 131.327 18.71C132.827 18.19 134.297 17.64 135.737 17.06V18.98C134.857 19.44 133.887 19.93 132.827 20.45C131.767 20.95 130.637 21.42 129.437 21.86C128.257 22.28 127.027 22.63 125.747 22.91C124.467 23.17 123.157 23.3 121.817 23.3C119.837 23.3 118.167 23.04 116.807 22.52C115.447 22 114.417 21.18 113.717 20.06C113.017 18.92 112.667 17.45 112.667 15.65C112.667 13.67 113.127 12.1 114.047 10.94C114.987 9.76 116.287 8.92 117.947 8.42C119.607 7.92 121.537 7.67 123.737 7.67C125.797 7.67 127.747 7.8 129.587 8.06C131.447 8.3 133.087 8.57 134.507 8.87ZM132.587 0.499998H136.007V23H133.007L132.587 19.49V0.499998ZM163.175 20.6C164.635 20.6 165.995 20.54 167.255 20.42C168.515 20.3 169.625 20.16 170.585 20C171.545 19.84 172.275 19.71 172.775 19.61L173.495 22.19C172.655 22.39 171.655 22.58 170.495 22.76C169.335 22.94 168.095 23.08 166.775 23.18C165.475 23.3 164.185 23.36 162.905 23.36C160.165 23.36 157.885 23.11 156.065 22.61C154.265 22.09 152.915 21.26 152.015 20.12C151.115 18.96 150.665 17.41 150.665 15.47C150.665 13.57 151.125 12.05 152.045 10.91C152.985 9.75 154.335 8.91 156.095 8.39C157.855 7.87 159.965 7.61 162.425 7.61C164.125 7.61 165.675 7.73 167.075 7.97C168.495 8.21 169.725 8.6 170.765 9.14C171.805 9.68 172.605 10.41 173.165 11.33C173.745 12.23 174.035 13.35 174.035 14.69C174.035 14.85 174.025 15.05 174.005 15.29C173.985 15.51 173.965 15.72 173.945 15.92C173.945 16.1 173.935 16.25 173.915 16.37H152.495V14.42H171.425L170.705 15.26C170.705 14.08 170.465 13.11 169.985 12.35C169.525 11.57 168.685 10.99 167.465 10.61C166.265 10.23 164.545 10.04 162.305 10.04C160.365 10.04 158.775 10.21 157.535 10.55C156.315 10.87 155.415 11.42 154.835 12.2C154.255 12.96 153.965 14.01 153.965 15.35C153.965 16.41 154.135 17.29 154.475 17.99C154.835 18.67 155.385 19.2 156.125 19.58C156.865 19.96 157.815 20.23 158.975 20.39C160.155 20.53 161.555 20.6 163.175 20.6ZM204.578 10.79H187.118V7.97H204.578V10.79ZM193.748 23H190.298V7.61C190.298 5.95 190.658 4.57 191.378 3.47C192.098 2.37 193.178 1.54 194.618 0.979999C196.058 0.419999 197.858 0.139999 200.018 0.139999C201.358 0.139999 202.568 0.209999 203.648 0.349998C204.748 0.469999 205.748 0.609999 206.648 0.769998L206.018 3.38C205.158 3.24 204.238 3.12 203.258 3.02C202.278 2.92 201.148 2.87 199.868 2.87C198.368 2.87 197.168 3.04 196.268 3.38C195.368 3.7 194.718 4.2 194.318 4.88C193.938 5.56 193.748 6.4 193.748 7.4V23ZM240.658 8.72L239.308 11.42C238.388 11.26 237.298 11.11 236.038 10.97C234.798 10.83 233.488 10.72 232.108 10.64C230.728 10.54 229.408 10.49 228.148 10.49C226.568 10.49 225.218 10.64 224.098 10.94C222.978 11.22 222.118 11.69 221.518 12.35C220.918 13.01 220.618 13.9 220.618 15.02C220.618 16.62 221.108 17.78 222.088 18.5C223.068 19.2 224.618 19.55 226.738 19.55C228.258 19.55 229.778 19.43 231.298 19.19C232.838 18.93 234.368 18.56 235.888 18.08C237.428 17.6 238.928 17.06 240.388 16.46V18.5C239.268 19.14 237.958 19.75 236.458 20.33C234.978 20.89 233.388 21.35 231.688 21.71C230.008 22.07 228.268 22.25 226.468 22.25C224.428 22.25 222.718 22.01 221.338 21.53C219.978 21.03 218.948 20.25 218.248 19.19C217.548 18.11 217.198 16.73 217.198 15.05C217.198 13.19 217.668 11.73 218.608 10.67C219.548 9.59 220.868 8.82 222.568 8.36C224.288 7.9 226.298 7.67 228.598 7.67C230.918 7.67 233.108 7.78 235.168 8C237.248 8.22 239.078 8.46 240.658 8.72ZM240.658 8.72V20.66C240.658 22.64 240.228 24.22 239.368 25.4C238.528 26.6 237.198 27.46 235.378 27.98C233.578 28.52 231.248 28.79 228.388 28.79C227.328 28.79 226.178 28.73 224.938 28.61C223.698 28.51 222.468 28.36 221.248 28.16C220.028 27.96 218.898 27.71 217.858 27.41L218.638 24.74C220.098 25.14 221.668 25.46 223.348 25.7C225.028 25.94 226.768 26.06 228.568 26.06C230.828 26.06 232.598 25.87 233.878 25.49C235.178 25.13 236.088 24.56 236.608 23.78C237.148 23 237.398 21.97 237.358 20.69L237.208 19.25V8.96L240.658 8.72ZM278.36 14.84V23H274.94V15.26C274.94 14.24 274.73 13.38 274.31 12.68C273.89 11.98 273.22 11.45 272.3 11.09C271.38 10.71 270.18 10.52 268.7 10.52C267.02 10.52 265.1 10.78 262.94 11.3C260.78 11.8 258.51 12.52 256.13 13.46V11.21C257.03 10.77 258 10.34 259.04 9.92C260.08 9.48 261.18 9.09 262.34 8.75C263.52 8.41 264.73 8.14 265.97 7.94C267.23 7.72 268.51 7.61 269.81 7.61C271.61 7.61 273.14 7.86 274.4 8.36C275.68 8.84 276.66 9.61 277.34 10.67C278.02 11.71 278.36 13.1 278.36 14.84ZM255.62 23V0.499998H259.04V23H255.62ZM296.745 1.76V5.81H293.325V1.76H296.745ZM293.325 23V7.97H296.745V23H293.325ZM312.737 28.43H309.077C309.377 28.03 309.687 27.57 310.007 27.05C310.347 26.53 310.667 25.95 310.967 25.31C311.267 24.67 311.507 23.95 311.687 23.15C311.887 22.35 311.987 21.47 311.987 20.51V7.97H315.407V20.54C315.407 21.92 315.257 23.11 314.957 24.11C314.677 25.11 314.327 25.96 313.907 26.66C313.507 27.36 313.117 27.95 312.737 28.43ZM315.407 1.76V5.81H311.987V1.76H315.407ZM334.07 0.499998V23H330.65V0.499998H334.07ZM341.63 16.34H333.68V13.52H341.63V16.34ZM352.88 7.97L341.24 15.8L341.18 14.03L353.27 23H348.5L339.29 16.34V13.61L348.11 7.97H352.88ZM369.636 0.499998V23H366.216V0.499998H369.636ZM405.908 14.84V23H402.488V15.26C402.488 14.24 402.288 13.38 401.888 12.68C401.508 11.98 400.898 11.45 400.058 11.09C399.238 10.71 398.148 10.52 396.788 10.52C395.788 10.52 394.698 10.64 393.518 10.88C392.338 11.12 391.068 11.46 389.708 11.9C388.368 12.34 386.938 12.86 385.418 13.46V11.33C386.278 10.91 387.188 10.48 388.148 10.04C389.128 9.6 390.148 9.2 391.208 8.84C392.288 8.46 393.388 8.16 394.508 7.94C395.628 7.72 396.758 7.61 397.898 7.61C399.578 7.61 401.018 7.86 402.218 8.36C403.418 8.84 404.328 9.61 404.948 10.67C405.588 11.71 405.908 13.1 405.908 14.84ZM384.878 23V7.97H387.878L388.298 11.21V23H384.878ZM423.518 14.84V23H420.098V15.26C420.098 14.24 419.898 13.38 419.498 12.68C419.118 11.98 418.508 11.45 417.668 11.09C416.848 10.71 415.758 10.52 414.398 10.52C413.358 10.52 412.208 10.64 410.948 10.88C409.708 11.1 408.378 11.43 406.958 11.87C405.538 12.31 404.048 12.84 402.488 13.46V11.33C403.368 10.89 404.318 10.45 405.338 10.01C406.358 9.57 407.428 9.17 408.548 8.81C409.668 8.45 410.808 8.16 411.968 7.94C413.128 7.72 414.308 7.61 415.508 7.61C417.188 7.61 418.628 7.86 419.828 8.36C421.028 8.84 421.938 9.61 422.558 10.67C423.198 11.71 423.518 13.1 423.518 14.84ZM461.231 14.84V23H457.811V15.26C457.811 14.24 457.601 13.38 457.181 12.68C456.761 11.98 456.091 11.45 455.171 11.09C454.251 10.71 453.051 10.52 451.571 10.52C449.891 10.52 447.971 10.78 445.811 11.3C443.651 11.8 441.381 12.52 439.001 13.46V11.33C439.901 10.89 440.871 10.45 441.911 10.01C442.951 9.57 444.051 9.17 445.211 8.81C446.371 8.45 447.571 8.16 448.811 7.94C450.071 7.72 451.351 7.61 452.651 7.61C454.451 7.61 455.991 7.86 457.271 8.36C458.551 8.84 459.531 9.61 460.211 10.67C460.891 11.71 461.231 13.1 461.231 14.84ZM438.491 23V7.97H441.491L441.911 11.21V23H438.491ZM498.936 14.84V23H495.516V15.26C495.516 14.24 495.306 13.38 494.886 12.68C494.466 11.98 493.796 11.45 492.876 11.09C491.956 10.71 490.756 10.52 489.276 10.52C487.596 10.52 485.676 10.78 483.516 11.3C481.356 11.8 479.086 12.52 476.706 13.46V11.33C477.606 10.89 478.576 10.45 479.616 10.01C480.656 9.57 481.756 9.17 482.916 8.81C484.076 8.45 485.276 8.16 486.516 7.94C487.776 7.72 489.056 7.61 490.356 7.61C492.156 7.61 493.696 7.86 494.976 8.36C496.256 8.84 497.236 9.61 497.916 10.67C498.596 11.71 498.936 13.1 498.936 14.84ZM476.196 23V7.97H479.196L479.616 11.21V23H476.196ZM482.496 5V2.93C482.856 2.67 483.276 2.45 483.756 2.27C484.256 2.07 484.796 1.97 485.376 1.97C486.136 1.97 486.846 2.05 487.506 2.21C488.186 2.35 488.826 2.5 489.426 2.66C490.026 2.82 490.616 2.9 491.196 2.9C491.736 2.9 492.186 2.82 492.546 2.66C492.926 2.48 493.296 2.28 493.656 2.06V4.19C493.416 4.37 493.086 4.55 492.666 4.73C492.266 4.91 491.796 5 491.256 5C490.636 5 489.996 4.92 489.336 4.76C488.676 4.6 488.006 4.44 487.326 4.28C486.666 4.12 486.006 4.04 485.346 4.04C484.766 4.04 484.246 4.13 483.786 4.31C483.346 4.49 482.916 4.72 482.496 5ZM513.301 15.47C513.301 12.73 514.341 10.73 516.421 9.47C518.521 8.21 521.751 7.58 526.111 7.58C530.491 7.58 533.721 8.21 535.801 9.47C537.881 10.73 538.921 12.73 538.921 15.47C538.921 18.21 537.881 20.21 535.801 21.47C533.721 22.73 530.491 23.36 526.111 23.36C521.751 23.36 518.521 22.73 516.421 21.47C514.341 20.21 513.301 18.21 513.301 15.47ZM516.721 15.47C516.721 16.63 517.021 17.58 517.621 18.32C518.221 19.06 519.201 19.6 520.561 19.94C521.941 20.26 523.791 20.42 526.111 20.42C528.451 20.42 530.301 20.26 531.661 19.94C533.021 19.6 534.001 19.06 534.601 18.32C535.201 17.58 535.501 16.63 535.501 15.47C535.501 14.29 535.201 13.34 534.601 12.62C534.001 11.9 533.021 11.37 531.661 11.03C530.301 10.69 528.451 10.52 526.111 10.52C523.791 10.52 521.941 10.69 520.561 11.03C519.201 11.37 518.221 11.9 517.621 12.62C517.021 13.34 516.721 14.29 516.721 15.47ZM555.069 22.07L555.159 19.49C556.059 19.65 557.129 19.81 558.369 19.97C559.609 20.11 560.899 20.23 562.239 20.33C563.599 20.43 564.909 20.48 566.169 20.48C567.709 20.48 569.019 20.32 570.099 20C571.199 19.68 572.039 19.14 572.619 18.38C573.199 17.62 573.489 16.62 573.489 15.38C573.489 13.68 573.009 12.45 572.049 11.69C571.089 10.93 569.539 10.55 567.399 10.55C565.979 10.55 564.499 10.71 562.959 11.03C561.419 11.35 559.879 11.77 558.339 12.29C556.799 12.79 555.299 13.33 553.839 13.91V11.99C554.699 11.53 555.659 11.05 556.719 10.55C557.779 10.03 558.919 9.56 560.139 9.14C561.359 8.7 562.629 8.35 563.949 8.09C565.269 7.81 566.619 7.67 567.999 7.67C569.919 7.67 571.539 7.94 572.859 8.48C574.199 9 575.209 9.82 575.889 10.94C576.569 12.06 576.909 13.52 576.909 15.32C576.909 17.28 576.449 18.85 575.529 20.03C574.629 21.19 573.359 22.03 571.719 22.55C570.079 23.05 568.159 23.3 565.959 23.3C563.959 23.3 561.999 23.17 560.079 22.91C558.179 22.65 556.509 22.37 555.069 22.07ZM557.019 28.55H553.569V7.97H556.569L557.019 11.48V28.55ZM132.198 48.72L130.848 51.42C129.948 51.26 128.868 51.11 127.608 50.97C126.348 50.83 125.028 50.72 123.648 50.64C122.268 50.54 120.948 50.49 119.688 50.49C118.128 50.49 116.788 50.65 115.668 50.97C114.568 51.29 113.728 51.82 113.148 52.56C112.568 53.28 112.278 54.25 112.278 55.47C112.278 57.25 112.768 58.52 113.748 59.28C114.728 60.04 116.278 60.42 118.398 60.42C119.898 60.42 121.398 60.26 122.898 59.94C124.418 59.6 125.938 59.16 127.458 58.62C128.978 58.06 130.468 57.48 131.928 56.88V58.92C131.028 59.4 130.038 59.9 128.958 60.42C127.898 60.94 126.758 61.42 125.538 61.86C124.338 62.28 123.078 62.63 121.758 62.91C120.458 63.17 119.128 63.3 117.768 63.3C115.868 63.3 114.258 63.04 112.938 62.52C111.618 61.98 110.608 61.15 109.908 60.03C109.208 58.89 108.858 57.42 108.858 55.62C108.858 53.62 109.318 52.04 110.238 50.88C111.178 49.72 112.488 48.9 114.168 48.42C115.848 47.92 117.808 47.67 120.048 47.67C122.368 47.67 124.578 47.78 126.678 48C128.778 48.2 130.618 48.44 132.198 48.72ZM128.778 48.96L132.198 48.72V68.4H128.778V48.96ZM147.163 63V47.97H150.163L150.583 52.14V63H147.163ZM161.863 47.61V50.73C160.623 50.73 159.433 50.8 158.293 50.94C157.173 51.08 156.043 51.32 154.903 51.66C153.783 51.98 152.633 52.4 151.453 52.92C150.273 53.44 149.013 54.09 147.673 54.87V52.86C148.493 52.24 149.403 51.63 150.403 51.03C151.423 50.41 152.533 49.84 153.733 49.32C154.933 48.8 156.213 48.39 157.573 48.09C158.933 47.77 160.363 47.61 161.863 47.61ZM196.636 59.04C196.636 60.14 196.306 61.01 195.646 61.65C194.986 62.27 193.926 62.71 192.466 62.97C191.006 63.23 189.046 63.36 186.586 63.36C185.186 63.36 183.816 63.31 182.476 63.21C181.156 63.11 179.906 62.98 178.726 62.82C177.566 62.64 176.496 62.46 175.516 62.28L176.116 59.94C177.156 60.12 178.256 60.29 179.416 60.45C180.576 60.61 181.776 60.74 183.016 60.84C184.256 60.92 185.526 60.96 186.826 60.96C188.526 60.96 189.856 60.91 190.816 60.81C191.776 60.71 192.446 60.52 192.826 60.24C193.206 59.96 193.396 59.55 193.396 59.01C193.396 58.45 193.226 58.04 192.886 57.78C192.546 57.5 192.006 57.29 191.266 57.15C190.546 57.01 189.606 56.9 188.446 56.82L181.606 56.4C180.186 56.32 178.996 56.14 178.036 55.86C177.096 55.58 176.386 55.13 175.906 54.51C175.446 53.89 175.216 53.04 175.216 51.96C175.216 50.76 175.616 49.85 176.416 49.23C177.216 48.61 178.406 48.18 179.986 47.94C181.586 47.7 183.566 47.58 185.926 47.58C186.606 47.58 187.356 47.61 188.176 47.67C189.016 47.71 189.866 47.77 190.726 47.85C191.606 47.91 192.456 47.99 193.276 48.09C194.116 48.19 194.866 48.3 195.526 48.42L195.016 50.76C193.916 50.58 192.816 50.43 191.716 50.31C190.616 50.19 189.526 50.1 188.446 50.04C187.366 49.98 186.286 49.95 185.206 49.95C183.526 49.95 182.186 50.01 181.186 50.13C180.206 50.23 179.506 50.42 179.086 50.7C178.666 50.98 178.456 51.39 178.456 51.93C178.456 52.45 178.596 52.85 178.876 53.13C179.156 53.39 179.566 53.57 180.106 53.67C180.646 53.75 181.266 53.82 181.966 53.88L189.106 54.36C190.786 54.46 192.176 54.67 193.276 54.99C194.396 55.29 195.236 55.76 195.796 56.4C196.356 57.04 196.636 57.92 196.636 59.04ZM229.179 50.79H209.379V47.97H229.179V50.79ZM213.069 55.56V48.45L213.729 44.13H216.519V55.29C216.519 56.57 216.689 57.59 217.029 58.35C217.369 59.09 217.969 59.62 218.829 59.94C219.689 60.26 220.869 60.42 222.369 60.42C223.749 60.42 225.009 60.33 226.149 60.15C227.309 59.97 228.409 59.77 229.449 59.55L230.109 62.31C229.029 62.57 227.799 62.81 226.419 63.03C225.039 63.25 223.599 63.36 222.099 63.36C219.979 63.36 218.249 63.11 216.909 62.61C215.589 62.09 214.619 61.26 213.999 60.12C213.379 58.98 213.069 57.46 213.069 55.56ZM243.719 56.16V47.97H247.139V55.71C247.139 56.71 247.359 57.57 247.799 58.29C248.239 58.99 248.929 59.53 249.869 59.91C250.809 60.27 252.039 60.45 253.559 60.45C254.619 60.45 255.819 60.33 257.159 60.09C258.519 59.85 259.949 59.51 261.449 59.07C262.969 58.61 264.529 58.07 266.129 57.45V59.55C265.229 59.99 264.249 60.44 263.189 60.9C262.129 61.34 261.009 61.75 259.829 62.13C258.669 62.49 257.459 62.78 256.199 63C254.959 63.24 253.719 63.36 252.479 63.36C250.639 63.36 249.069 63.12 247.769 62.64C246.469 62.16 245.469 61.39 244.769 60.33C244.069 59.27 243.719 57.88 243.719 56.16ZM266.639 47.97V63H263.669L263.219 59.79V47.97H266.639ZM292.103 61.11L302.513 47.97H306.533L294.803 63H290.663L279.803 47.97H283.883L293.393 61.11H292.103ZM328.419 62.1L327.789 63H325.359L317.889 47.97H321.519L328.419 62.1ZM334.929 47.97H338.109L338.139 48.57L329.199 63H326.829L326.259 62.16L334.929 47.97ZM344.889 63L336.129 48.84L336.189 47.97H339.279L347.949 62.04L347.409 63H344.889ZM345.789 62.22L352.869 47.97H356.529L348.729 63H346.329L345.789 62.22ZM382.479 54.45L382.719 54.66L394.569 63H389.649L380.079 56.28L379.809 56.07L368.139 47.97H373.059L382.479 54.45ZM372.759 63H367.929L379.719 54.63L380.169 54.36L389.409 47.97H394.239L382.779 55.98L382.389 56.22L372.759 63ZM431.066 47.97V60.33C431.066 62.47 430.646 64.15 429.806 65.37C428.986 66.61 427.696 67.49 425.936 68.01C424.196 68.53 421.926 68.79 419.126 68.79C417.906 68.79 416.666 68.73 415.406 68.61C414.166 68.49 412.966 68.33 411.806 68.13C410.666 67.93 409.626 67.69 408.686 67.41L409.346 64.71C410.866 65.09 412.456 65.41 414.116 65.67C415.796 65.93 417.536 66.06 419.336 66.06C421.456 66.06 423.136 65.88 424.376 65.52C425.636 65.18 426.526 64.61 427.046 63.81C427.586 63.01 427.836 61.94 427.796 60.6L427.646 59.01V47.97H431.066ZM407.606 54.69V47.97H411.026V54.21C411.026 55.31 411.256 56.2 411.716 56.88C412.176 57.56 412.896 58.06 413.876 58.38C414.876 58.68 416.186 58.83 417.806 58.83C419.326 58.83 420.806 58.72 422.246 58.5C423.686 58.28 425.106 57.98 426.506 57.6C427.906 57.22 429.296 56.78 430.676 56.28V58.38C429.876 58.78 428.956 59.18 427.916 59.58C426.896 59.96 425.796 60.32 424.616 60.66C423.436 60.98 422.206 61.24 420.926 61.44C419.646 61.62 418.346 61.71 417.026 61.71C414.806 61.71 413.006 61.47 411.626 60.99C410.246 60.49 409.226 59.72 408.566 58.68C407.926 57.62 407.606 56.29 407.606 54.69ZM468.244 60.54V63H445.624V60.54L455.794 54.3C456.494 53.92 457.234 53.54 458.014 53.16C458.814 52.78 459.594 52.42 460.354 52.08C461.134 51.74 461.854 51.43 462.514 51.15C463.174 50.87 463.734 50.63 464.194 50.43H445.924V47.97H468.244V50.43L458.764 56.34C457.904 56.84 457.034 57.31 456.154 57.75C455.294 58.17 454.474 58.56 453.694 58.92C452.934 59.26 452.234 59.57 451.594 59.85C450.954 60.11 450.414 60.34 449.974 60.54H468.244Z" fill="#0048FF"/>
</svg>
