<svg width="598" height="72" viewBox="0 0 598 72" fill="none" xmlns="http://www.w3.org/2000/svg">
<path d="M28.4948 21.32H6.8048V18.68H28.4948V21.32ZM18.8048 5.54V6.2L5.30481 26H0.864805L15.1148 5.54H18.8048ZM29.7548 26L16.2248 6.2L16.2548 5.54H19.9448L34.1948 26H29.7548ZM67.0389 26H45.7989V5.54H66.9489C68.4889 5.54 69.7189 5.74 70.6389 6.14C71.5789 6.54 72.2589 7.12 72.6789 7.88C73.0989 8.64 73.3089 9.56 73.3089 10.64C73.2889 11.98 72.8989 13.08 72.1389 13.94C71.3789 14.8 70.2489 15.32 68.7489 15.5V15.11C70.5289 15.27 71.8589 15.81 72.7389 16.73C73.6389 17.63 74.0889 18.91 74.0889 20.57C74.0889 21.79 73.8389 22.81 73.3389 23.63C72.8589 24.43 72.0989 25.03 71.0589 25.43C70.0389 25.81 68.6989 26 67.0389 26ZM66.7089 17.03H49.3989V23.36H66.4089C67.9089 23.36 68.9889 23.13 69.6489 22.67C70.3089 22.19 70.6389 21.36 70.6389 20.18C70.6389 19 70.2889 18.18 69.5889 17.72C68.9089 17.26 67.9489 17.03 66.7089 17.03ZM66.0489 8.39H49.3989V14.36H66.3789C67.0389 14.36 67.6289 14.26 68.1489 14.06C68.6889 13.84 69.1089 13.51 69.4089 13.07C69.7289 12.63 69.8889 12.06 69.8889 11.36C69.8889 10.34 69.5889 9.59 68.9889 9.11C68.3889 8.63 67.4089 8.39 66.0489 8.39ZM91.7496 15.8C91.7496 17.04 91.9296 18.12 92.2896 19.04C92.6496 19.96 93.2496 20.73 94.0896 21.35C94.9296 21.95 96.0596 22.4 97.4796 22.7C98.8996 23 100.66 23.15 102.76 23.15C104.38 23.15 105.99 23.07 107.59 22.91C109.21 22.73 110.75 22.51 112.21 22.25C113.67 21.99 114.97 21.74 116.11 21.5L116.8 24.59C115.48 24.91 114.03 25.2 112.45 25.46C110.87 25.72 109.24 25.93 107.56 26.09C105.9 26.27 104.26 26.36 102.64 26.36C100.1 26.36 97.8996 26.14 96.0396 25.7C94.1996 25.26 92.6896 24.61 91.5096 23.75C90.3496 22.87 89.4896 21.77 88.9296 20.45C88.3696 19.13 88.0896 17.58 88.0896 15.8C88.0896 14.02 88.3696 12.47 88.9296 11.15C89.4896 9.81 90.3496 8.71 91.5096 7.85C92.6896 6.97 94.1996 6.32 96.0396 5.9C97.8996 5.46 100.1 5.24 102.64 5.24C104.26 5.24 105.9 5.32 107.56 5.48C109.24 5.64 110.87 5.86 112.45 6.14C114.03 6.4 115.48 6.69 116.8 7.01L116.11 10.1C114.97 9.84 113.67 9.59 112.21 9.35C110.75 9.09 109.21 8.87 107.59 8.69C105.99 8.51 104.38 8.42 102.76 8.42C100.66 8.42 98.8996 8.57 97.4796 8.87C96.0596 9.17 94.9296 9.63 94.0896 10.25C93.2496 10.87 92.6496 11.64 92.2896 12.56C91.9296 13.46 91.7496 14.54 91.7496 15.8ZM148.854 26H130.584V5.54H148.854C150.814 5.54 152.534 5.73 154.014 6.11C155.494 6.47 156.744 7.05 157.764 7.85C158.784 8.63 159.544 9.67 160.044 10.97C160.564 12.27 160.824 13.86 160.824 15.74C160.824 17.64 160.564 19.25 160.044 20.57C159.524 21.87 158.754 22.92 157.734 23.72C156.734 24.52 155.484 25.1 153.984 25.46C152.504 25.82 150.794 26 148.854 26ZM134.244 8.69V22.85H148.524C150.584 22.85 152.234 22.62 153.474 22.16C154.734 21.68 155.644 20.92 156.204 19.88C156.764 18.84 157.044 17.46 157.044 15.74C157.044 14 156.764 12.62 156.204 11.6C155.644 10.58 154.734 9.84 153.474 9.38C152.234 8.92 150.584 8.69 148.524 8.69H134.244ZM201.371 26H174.881V5.54H201.371V8.48H178.541V14.33H200.801V16.82H178.541V23.06H201.371V26ZM219.41 26H215.75V5.54H242.24V8.69H219.41V15.08H241.67V18.02H219.41V26ZM256.166 15.77C256.166 13.99 256.456 12.44 257.036 11.12C257.616 9.8 258.506 8.71 259.706 7.85C260.926 6.97 262.486 6.32 264.386 5.9C266.306 5.46 268.596 5.24 271.256 5.24C272.836 5.24 274.436 5.32 276.056 5.48C277.696 5.64 279.286 5.86 280.826 6.14C282.366 6.4 283.776 6.69 285.056 7.01L284.366 10.1C283.226 9.84 281.926 9.59 280.466 9.35C279.026 9.09 277.496 8.87 275.876 8.69C274.276 8.51 272.656 8.42 271.016 8.42C268.876 8.42 267.086 8.57 265.646 8.87C264.206 9.17 263.056 9.63 262.196 10.25C261.356 10.85 260.746 11.61 260.366 12.53C260.006 13.45 259.826 14.53 259.826 15.77C259.826 17.03 260.006 18.12 260.366 19.04C260.746 19.96 261.356 20.73 262.196 21.35C263.056 21.95 264.206 22.4 265.646 22.7C267.086 23 268.876 23.15 271.016 23.15C272.236 23.15 273.446 23.09 274.646 22.97C275.866 22.85 277.046 22.71 278.186 22.55C279.326 22.37 280.356 22.19 281.276 22.01V15.47H285.056V24.56C283.776 24.88 282.366 25.18 280.826 25.46C279.286 25.72 277.696 25.93 276.056 26.09C274.436 26.25 272.836 26.33 271.256 26.33C268.596 26.33 266.306 26.12 264.386 25.7C262.486 25.26 260.926 24.61 259.706 23.75C258.506 22.87 257.616 21.77 257.036 20.45C256.456 19.13 256.166 17.57 256.166 15.77ZM303.111 26H299.451V5.54H303.111V13.79H323.871V5.54H327.531V26H323.871V16.97H303.111V26ZM345.885 26H342.225V5.54H345.885V26ZM366.281 23.3C368.481 23.3 370.181 23.11 371.381 22.73C372.601 22.33 373.451 21.71 373.931 20.87C374.411 20.01 374.651 18.88 374.651 17.48V5.54H378.311V17.51C378.311 18.97 378.111 20.26 377.711 21.38C377.311 22.5 376.651 23.44 375.731 24.2C374.831 24.94 373.611 25.5 372.071 25.88C370.551 26.26 368.651 26.45 366.371 26.45C365.591 26.45 364.761 26.41 363.881 26.33C363.021 26.25 362.171 26.14 361.331 26C360.511 25.84 359.771 25.65 359.111 25.43L359.951 22.43C360.931 22.73 362.001 22.95 363.161 23.09C364.341 23.23 365.381 23.3 366.281 23.3ZM414.364 5.54H419.554L404.884 15.11L404.344 15.35L395.134 21.11L394.774 18.17L401.524 13.49L414.364 5.54ZM396.334 26H392.674V5.54H396.334V26ZM405.754 13.19L420.004 26H415.114L402.904 15.08L405.754 13.19ZM438.053 22.85H460.403V26H434.393V5.54H438.053V22.85ZM477.223 26H473.563V5.54H478.033L492.283 22.97L506.533 5.54H510.943V26H507.283V9.89L494.083 26H490.393L477.223 9.89V26ZM529.283 26H525.623V5.54H529.823L550.793 22.04V5.54H554.453V26H550.283L529.283 9.38V26ZM572.789 26H569.129V5.54H573.329L594.299 22.04V5.54H597.959V26H593.789L572.789 9.38V26ZM578.249 3.92V1.85C578.609 1.59 579.029 1.37 579.509 1.19C580.009 0.99 580.549 0.89 581.129 0.89C581.889 0.89 582.599 0.969999 583.259 1.13C583.939 1.27 584.579 1.42 585.179 1.58C585.799 1.74 586.389 1.82 586.949 1.82C587.489 1.82 587.939 1.73 588.299 1.55C588.679 1.37 589.049 1.17 589.409 0.949999V3.11C589.169 3.29 588.849 3.47 588.449 3.65C588.049 3.83 587.569 3.92 587.009 3.92C586.389 3.92 585.749 3.84 585.089 3.68C584.429 3.5 583.759 3.33 583.079 3.17C582.419 3.01 581.759 2.93 581.099 2.93C580.519 2.93 579.999 3.03 579.539 3.23C579.099 3.41 578.669 3.64 578.249 3.92ZM60.0938 66.36C56.3938 66.36 53.3538 65.99 50.9738 65.25C48.5938 64.49 46.8238 63.33 45.6638 61.77C44.5238 60.21 43.9538 58.21 43.9538 55.77C43.9538 53.31 44.5238 51.31 45.6638 49.77C46.8238 48.21 48.5938 47.06 50.9738 46.32C53.3538 45.56 56.3938 45.18 60.0938 45.18C63.7738 45.18 66.8038 45.56 69.1838 46.32C71.5638 47.06 73.3338 48.21 74.4938 49.77C75.6538 51.31 76.2338 53.31 76.2338 55.77C76.2338 58.21 75.6538 60.21 74.4938 61.77C73.3338 63.33 71.5638 64.49 69.1838 65.25C66.8038 65.99 63.7738 66.36 60.0938 66.36ZM60.0938 63.18C62.4138 63.18 64.3638 63.04 65.9438 62.76C67.5438 62.46 68.8238 62.01 69.7838 61.41C70.7438 60.79 71.4338 60.02 71.8538 59.1C72.2938 58.16 72.5138 57.05 72.5138 55.77C72.5138 54.47 72.2938 53.36 71.8538 52.44C71.4338 51.52 70.7438 50.76 69.7838 50.16C68.8238 49.54 67.5438 49.09 65.9438 48.81C64.3638 48.51 62.4138 48.36 60.0938 48.36C56.9938 48.36 54.5338 48.62 52.7138 49.14C50.8938 49.66 49.5838 50.47 48.7838 51.57C48.0038 52.65 47.6138 54.05 47.6138 55.77C47.6138 57.49 48.0038 58.9 48.7838 60C49.5838 61.08 50.8938 61.88 52.7138 62.4C54.5338 62.92 56.9938 63.18 60.0938 63.18ZM90.3155 66V45.54H110.146C111.406 45.54 112.526 45.67 113.506 45.93C114.486 46.17 115.306 46.55 115.966 47.07C116.646 47.59 117.156 48.27 117.496 49.11C117.856 49.95 118.036 50.97 118.036 52.17C118.036 53.79 117.726 55.12 117.106 56.16C116.486 57.2 115.586 57.96 114.406 58.44C113.246 58.9 111.826 59.13 110.146 59.13H93.9755V66H90.3155ZM109.846 48.69H93.9755V55.98H109.846C111.366 55.98 112.476 55.7 113.176 55.14C113.896 54.58 114.256 53.65 114.256 52.35C114.256 51.03 113.896 50.09 113.176 49.53C112.476 48.97 111.366 48.69 109.846 48.69ZM147.691 66.36C143.991 66.36 140.951 65.99 138.571 65.25C136.191 64.49 134.421 63.33 133.261 61.77C132.121 60.21 131.551 58.21 131.551 55.77C131.551 53.31 132.121 51.31 133.261 49.77C134.421 48.21 136.191 47.06 138.571 46.32C140.951 45.56 143.991 45.18 147.691 45.18C151.371 45.18 154.401 45.56 156.781 46.32C159.161 47.06 160.931 48.21 162.091 49.77C163.251 51.31 163.831 53.31 163.831 55.77C163.831 58.21 163.251 60.21 162.091 61.77C160.931 63.33 159.161 64.49 156.781 65.25C154.401 65.99 151.371 66.36 147.691 66.36ZM147.691 63.18C150.011 63.18 151.961 63.04 153.541 62.76C155.141 62.46 156.421 62.01 157.381 61.41C158.341 60.79 159.031 60.02 159.451 59.1C159.891 58.16 160.111 57.05 160.111 55.77C160.111 54.47 159.891 53.36 159.451 52.44C159.031 51.52 158.341 50.76 157.381 50.16C156.421 49.54 155.141 49.09 153.541 48.81C151.961 48.51 150.011 48.36 147.691 48.36C144.591 48.36 142.131 48.62 140.311 49.14C138.491 49.66 137.181 50.47 136.381 51.57C135.601 52.65 135.211 54.05 135.211 55.77C135.211 57.49 135.601 58.9 136.381 60C137.181 61.08 138.491 61.88 140.311 62.4C142.131 62.92 144.591 63.18 147.691 63.18ZM159.601 71.49H155.131L147.751 65.55L151.891 65.16L159.601 71.49ZM181.573 66H177.913V45.54H197.563C198.823 45.54 199.943 45.67 200.923 45.93C201.903 46.17 202.723 46.56 203.383 47.1C204.063 47.62 204.573 48.31 204.913 49.17C205.253 50.01 205.423 51.03 205.423 52.23C205.423 53.67 205.153 54.87 204.613 55.83C204.093 56.79 203.303 57.52 202.243 58.02C201.183 58.52 199.863 58.8 198.283 58.86L196.003 58.89L197.833 60.15L205.003 66H200.323L191.923 59.04H181.573V66ZM181.573 48.69V56.22H197.323C198.863 56.22 199.963 55.93 200.623 55.35C201.303 54.77 201.643 53.81 201.643 52.47C201.643 51.11 201.303 50.14 200.623 49.56C199.963 48.98 198.863 48.69 197.323 48.69H181.573ZM246.706 60.57C246.706 61.59 246.506 62.47 246.106 63.21C245.706 63.93 245.026 64.53 244.066 65.01C243.106 65.47 241.806 65.81 240.166 66.03C238.546 66.25 236.506 66.36 234.046 66.36C232.486 66.36 230.846 66.29 229.126 66.15C227.426 66.03 225.786 65.86 224.206 65.64C222.646 65.4 221.276 65.15 220.096 64.89L220.606 61.89C221.566 62.11 222.616 62.31 223.756 62.49C224.896 62.67 226.096 62.83 227.356 62.97C228.616 63.11 229.876 63.22 231.136 63.3C232.416 63.38 233.666 63.42 234.886 63.42C236.646 63.42 238.066 63.37 239.146 63.27C240.246 63.15 241.086 62.98 241.666 62.76C242.266 62.52 242.676 62.21 242.896 61.83C243.116 61.45 243.226 61 243.226 60.48C243.226 59.72 243.076 59.16 242.776 58.8C242.476 58.42 242.036 58.15 241.456 57.99C240.876 57.81 240.156 57.68 239.296 57.6L227.626 56.58C225.886 56.46 224.426 56.21 223.246 55.83C222.086 55.43 221.216 54.85 220.636 54.09C220.056 53.33 219.766 52.32 219.766 51.06C219.766 49.66 220.176 48.53 220.996 47.67C221.816 46.81 223.156 46.19 225.016 45.81C226.876 45.41 229.336 45.21 232.396 45.21C233.396 45.21 234.466 45.25 235.606 45.33C236.766 45.39 237.946 45.48 239.146 45.6C240.366 45.72 241.536 45.86 242.656 46.02C243.796 46.18 244.836 46.36 245.776 46.56L245.176 49.41C244.316 49.23 243.336 49.07 242.236 48.93C241.136 48.77 239.976 48.64 238.756 48.54C237.536 48.42 236.316 48.33 235.096 48.27C233.896 48.19 232.746 48.15 231.646 48.15C229.886 48.15 228.446 48.2 227.326 48.3C226.226 48.38 225.376 48.54 224.776 48.78C224.196 49 223.796 49.29 223.576 49.65C223.356 50.01 223.246 50.45 223.246 50.97C223.246 51.63 223.406 52.14 223.726 52.5C224.046 52.84 224.516 53.08 225.136 53.22C225.776 53.36 226.556 53.49 227.476 53.61L238.846 54.57C240.086 54.67 241.196 54.84 242.176 55.08C243.156 55.32 243.976 55.67 244.636 56.13C245.316 56.57 245.826 57.15 246.166 57.87C246.526 58.59 246.706 59.49 246.706 60.57ZM271.458 48.69H259.128V45.54H287.448V48.69H275.118V66H271.458V48.69ZM324.823 55.35V45.54H328.483V56.01C328.483 58.39 327.913 60.34 326.773 61.86C325.633 63.36 324.003 64.48 321.883 65.22C319.763 65.96 317.233 66.33 314.293 66.33C311.373 66.33 308.843 65.96 306.703 65.22C304.583 64.48 302.953 63.36 301.813 61.86C300.673 60.34 300.103 58.39 300.103 56.01V45.54H303.763V55.35C303.763 57.13 304.133 58.6 304.873 59.76C305.633 60.92 306.793 61.78 308.353 62.34C309.913 62.88 311.893 63.15 314.293 63.15C316.693 63.15 318.663 62.88 320.203 62.34C321.763 61.78 322.923 60.92 323.683 59.76C324.443 58.6 324.823 57.13 324.823 55.35ZM354.6 66L340.53 45.54H345L357.06 63L369.09 45.54H373.47L359.43 66H354.6ZM393.741 66L383.721 45.54H387.861L396.171 62.64L405.441 45.54H409.911L419.241 62.64L427.491 45.54H431.601L421.581 66H416.961L407.691 48.99L398.391 66H393.741ZM458.878 54.3L469.678 45.54H475.018L461.158 56.76L460.348 57.03L449.248 66H443.758L457.828 54.75L458.878 54.3ZM443.908 45.54H449.458L460.198 54.27L461.248 54.78L475.228 66H469.618L458.548 56.97L457.438 56.46L443.908 45.54ZM499.341 57.9L485.541 45.54H490.311L501.201 55.11L512.091 45.54H516.801L503.001 57.93V66H499.341V57.9ZM556.567 62.85V66H528.037V63.06L545.587 51.81C546.047 51.57 546.557 51.32 547.117 51.06C547.697 50.8 548.277 50.55 548.857 50.31C549.457 50.07 550.027 49.84 550.567 49.62C551.127 49.4 551.617 49.2 552.037 49.02L545.047 49.26H528.577V46.08H556.477V49.05L540.127 59.82C539.587 60.1 538.997 60.39 538.357 60.69C537.737 60.97 537.087 61.26 536.407 61.56C535.747 61.84 535.097 62.11 534.457 62.37C533.837 62.61 533.257 62.84 532.717 63.06L539.977 62.85H556.567Z" fill="#0048FF"/>
</svg>
