<svg width="264" height="82" viewBox="0 0 264 82" fill="none" xmlns="http://www.w3.org/2000/svg">
<g clip-path="url(#clip0_898_913)">
<path d="M15.783 0.329346H266.671V134.671H0.328613V15.8049C0.328614 7.258 7.24779 0.329346 15.783 0.329346Z" fill="#F4F4F4" stroke="#A9A9A9"/>
<path d="M140.734 0.329346H266.671V134.671H0.328613V49.3902H114.428C121.874 49.3902 127.91 43.3461 127.91 35.8903V13.1708C127.91 6.07866 133.651 0.329346 140.734 0.329346Z" fill="white" stroke="#A9A9A9"/>
<path d="M266.671 49.3904V93.5123H0.328613V49.3904H266.671Z" stroke="#A9A9A9"/>
<path d="M174.786 55.6021H265.131V87.6636H174.786C166.267 87.6636 159.331 80.5027 159.331 71.6323C159.331 62.7621 166.267 55.6021 174.786 55.6021Z" fill="#EEEEEE" stroke="#EEEEEE"/>
<path d="M34.8547 32.2682C38.4867 32.2682 41.431 29.3198 41.431 25.6828C41.431 22.0458 38.4867 19.0974 34.8547 19.0974C31.2227 19.0974 28.2783 22.0458 28.2783 25.6828C28.2783 29.3198 31.2227 32.2682 34.8547 32.2682Z" fill="#0048FF"/>
<path d="M59.1872 32.2682C62.8192 32.2682 65.7635 29.3198 65.7635 25.6828C65.7635 22.0458 62.8192 19.0974 59.1872 19.0974C55.5552 19.0974 52.6108 22.0458 52.6108 25.6828C52.6108 29.3198 55.5552 32.2682 59.1872 32.2682Z" fill="#0048FF"/>
<path d="M83.5197 32.2682C87.1517 32.2682 90.0961 29.3198 90.0961 25.6828C90.0961 22.0458 87.1517 19.0974 83.5197 19.0974C79.8877 19.0974 76.9434 22.0458 76.9434 25.6828C76.9434 29.3198 79.8877 32.2682 83.5197 32.2682Z" fill="#0048FF"/>
<path d="M67.0026 73.0209C67.3235 72.6996 67.3235 72.178 67.0026 71.8566L61.7711 66.618C61.4501 66.2966 60.9295 66.2966 60.6086 66.618C60.2875 66.9393 60.2875 67.4609 60.6086 67.7823L65.2587 72.4388L60.6086 77.0953C60.2875 77.4167 60.2875 77.9382 60.6086 78.2596C60.9295 78.581 61.4501 78.581 61.7711 78.2596L67.0026 73.0209ZM53.2686 72.4388V73.262H66.4213V72.4388V71.6156H53.2686V72.4388Z" fill="black"/>
<path d="M16.5171 73.0209C16.1961 72.6996 16.1961 72.178 16.5171 71.8566L21.7486 66.618C22.0696 66.2966 22.5901 66.2966 22.9111 66.618C23.2322 66.9393 23.2322 67.4609 22.9111 67.7823L18.261 72.4388L22.9111 77.0953C23.2322 77.4167 23.2322 77.9382 22.9111 78.2596C22.5901 78.581 22.0696 78.581 21.7486 78.2596L16.5171 73.0209ZM30.2511 72.4388V73.262H17.0984V72.4388V71.6156H30.2511V72.4388Z" fill="black"/>
<path d="M128.732 69.9779V78.3657C128.732 78.7292 129.027 79.0243 129.39 79.0243H138.202C138.565 79.0243 138.86 78.7292 138.86 78.3657V69.5854M141.392 71.4511L133.796 65.8535L126.924 71.4511" stroke="black" stroke-width="1.4" stroke-linecap="round" stroke-linejoin="round"/>
<path d="M103.906 72.4389C103.906 76.076 100.962 79.0243 97.3298 79.0243C93.6977 79.0243 90.7534 76.076 90.7534 72.4389C90.7534 68.8018 93.6977 65.8535 97.3298 65.8535C100.152 65.8535 102.559 67.6335 103.492 70.134" stroke="black" stroke-width="1.4"/>
<path d="M104.564 65.8911V70.5009H99.9604L104.564 65.8911Z" fill="black"/>
<path d="M176.904 72.439V68.8171C176.904 67.5441 177.934 66.5122 179.206 66.5122C180.477 66.5122 181.507 67.5441 181.507 68.8171V72.439" stroke="#9C9C9C" stroke-width="2"/>
<path d="M182.822 70.7925H175.589C175.044 70.7925 174.602 71.2347 174.602 71.7803V77.0486C174.602 77.5941 175.044 78.0364 175.589 78.0364H182.822C183.367 78.0364 183.809 77.5941 183.809 77.0486V71.7803C183.809 71.2347 183.367 70.7925 182.822 70.7925Z" fill="#9C9C9C" stroke="#9C9C9C"/>
<path d="M256.018 78.0281L253.277 69.02H254.73L256.674 75.9169H256.768L258.689 69.02H260.165L262.062 75.8938H262.156L264.101 69.02H265.553L262.812 78.0281H261.453L259.486 71.1076H259.345L257.377 78.0281H256.018Z" fill="black"/>
<path d="M252.641 65.4253L248.775 79.806H247.51L251.375 65.4253H252.641Z" fill="black"/>
<path d="M246.943 65.1953L243.078 79.5764H241.813L245.679 65.1953H246.943Z" fill="black"/>
<path d="M239.33 78.1282C239.041 78.1282 238.793 78.0248 238.586 77.8174C238.379 77.6099 238.275 77.3617 238.275 77.0726C238.275 76.7828 238.379 76.5345 238.586 76.3278C238.793 76.1203 239.041 76.0169 239.33 76.0169C239.619 76.0169 239.867 76.1203 240.073 76.3278C240.281 76.5345 240.384 76.7828 240.384 77.0726C240.384 77.2642 240.335 77.44 240.238 77.6001C240.144 77.7607 240.017 77.8898 239.857 77.9873C239.7 78.0814 239.525 78.1282 239.33 78.1282ZM239.33 71.4421C239.041 71.4421 238.793 71.3387 238.586 71.1312C238.379 70.9238 238.275 70.6755 238.275 70.3864C238.275 70.0973 238.379 69.8484 238.586 69.6416C238.793 69.4342 239.041 69.3308 239.33 69.3308C239.619 69.3308 239.867 69.4342 240.073 69.6416C240.281 69.8484 240.384 70.0973 240.384 70.3864C240.384 70.5781 240.335 70.7539 240.238 70.9139C240.144 71.0746 240.017 71.2037 239.857 71.3012C239.7 71.3953 239.525 71.4421 239.33 71.4421Z" fill="black"/>
<path d="M236.282 71.0383L235.04 71.39C234.962 71.1832 234.847 70.9817 234.695 70.7861C234.546 70.5865 234.344 70.4226 234.086 70.2935C233.828 70.1644 233.498 70.0999 233.096 70.0999C232.545 70.0999 232.087 70.227 231.72 70.4812C231.357 70.7314 231.174 71.0501 231.174 71.4374C231.174 71.7811 231.299 72.0531 231.549 72.252C231.799 72.4515 232.19 72.6181 232.721 72.7505L234.056 73.0791C234.86 73.2747 235.46 73.5737 235.854 73.9767C236.249 74.3751 236.446 74.8894 236.446 75.519C236.446 76.0353 236.297 76.4962 236.001 76.9032C235.708 77.3095 235.298 77.6302 234.771 77.8653C234.244 78.0998 233.631 78.217 232.932 78.217C232.014 78.217 231.255 78.0175 230.654 77.6191C230.052 77.22 229.672 76.6372 229.511 75.8706L230.823 75.5427C230.948 76.0274 231.184 76.3909 231.532 76.6332C231.883 76.8756 232.342 76.9967 232.909 76.9967C233.552 76.9967 234.064 76.8604 234.443 76.5865C234.826 76.3086 235.017 75.9767 235.017 75.5894C235.017 75.2766 234.908 75.0145 234.689 74.8038C234.47 74.5885 234.134 74.4284 233.681 74.3224L232.182 73.9708C231.359 73.7752 230.753 73.4722 230.366 73.0613C229.984 72.6471 229.793 72.1288 229.793 71.5072C229.793 70.9994 229.935 70.5497 230.22 70.1585C230.509 69.7673 230.901 69.4604 231.397 69.2379C231.897 69.0146 232.463 68.9033 233.096 68.9033C233.986 68.9033 234.685 69.0989 235.193 69.4901C235.704 69.8806 236.067 70.3969 236.282 71.0383Z" fill="black"/>
<path d="M220.142 81.6586V69.2715H221.477V70.7025H221.642C221.743 70.5464 221.884 70.3469 222.063 70.1046C222.247 69.8583 222.508 69.639 222.848 69.448C223.192 69.2524 223.656 69.1543 224.242 69.1543C224.999 69.1543 225.667 69.344 226.245 69.7233C226.822 70.1026 227.273 70.64 227.598 71.336C227.922 72.0321 228.084 72.8533 228.084 73.7996C228.084 74.7538 227.922 75.5803 227.598 76.2803C227.273 76.9764 226.824 77.5157 226.251 77.899C225.677 78.2783 225.015 78.468 224.265 78.468C223.687 78.468 223.224 78.3725 222.877 78.1809C222.529 77.9853 222.262 77.764 222.075 77.5177C221.887 77.2675 221.743 77.0607 221.642 76.896H221.524V81.6586H220.142ZM221.501 73.7759C221.501 74.4562 221.6 75.0568 221.799 75.5763C221.999 76.0926 222.289 76.4976 222.672 76.7907C223.055 77.0798 223.523 77.2247 224.077 77.2247C224.655 77.2247 225.138 77.0719 225.524 76.767C225.915 76.4581 226.207 76.0439 226.403 75.5237C226.602 75.0001 226.701 74.4173 226.701 73.7759C226.701 73.1424 226.604 72.5714 226.409 72.0637C226.217 71.5514 225.927 71.1464 225.536 70.8494C225.149 70.5484 224.663 70.3976 224.077 70.3976C223.515 70.3976 223.043 70.5405 222.66 70.8257C222.277 71.1075 221.989 71.5026 221.793 72.0104C221.598 72.5148 221.501 73.1035 221.501 73.7759Z" fill="black"/>
<path d="M218.321 68.9871V70.16H213.659V68.9871H218.321ZM215.017 66.8291H216.4V75.4151C216.4 75.8063 216.456 76.0993 216.569 76.2949C216.687 76.4865 216.835 76.6156 217.015 76.6821C217.198 76.7447 217.391 76.7756 217.595 76.7756C217.747 76.7756 217.872 76.7684 217.969 76.7526C218.067 76.7328 218.145 76.717 218.204 76.7058L218.485 77.9491C218.391 77.984 218.26 78.0189 218.092 78.0545C217.925 78.0933 217.712 78.1131 217.454 78.1131C217.064 78.1131 216.681 78.0288 216.306 77.8609C215.935 77.693 215.627 77.4368 215.381 77.0924C215.138 76.7486 215.017 76.3146 215.017 75.7904V66.8291Z" fill="black"/>
<path d="M212.514 68.9871V70.16H207.852V68.9871H212.514ZM209.211 66.8291H210.593V75.4151C210.593 75.8063 210.65 76.0993 210.763 76.2949C210.88 76.4865 211.028 76.6156 211.208 76.6821C211.391 76.7447 211.585 76.7756 211.788 76.7756C211.94 76.7756 212.065 76.7684 212.163 76.7526C212.26 76.7328 212.338 76.717 212.397 76.7058L212.678 77.9491C212.584 77.984 212.454 78.0189 212.286 78.0545C212.118 78.0933 211.905 78.1131 211.647 78.1131C211.257 78.1131 210.875 78.0288 210.5 77.8609C210.129 77.693 209.82 77.4368 209.574 77.0924C209.332 76.7486 209.211 76.3146 209.211 75.7904V66.8291Z" fill="black"/>
<path d="M200.593 72.5609V77.98H199.211V65.969H200.593V70.3792H200.71C200.921 69.9136 201.238 69.5442 201.659 69.2709C202.085 68.993 202.651 68.854 203.358 68.854C203.971 68.854 204.508 68.9772 204.969 69.2235C205.43 69.4665 205.787 69.8399 206.04 70.3437C206.298 70.8441 206.427 71.4816 206.427 72.256V77.98H205.045V72.3496C205.045 71.6344 204.859 71.0812 204.488 70.69C204.121 70.2949 203.612 70.0974 202.959 70.0974C202.507 70.0974 202.101 70.1935 201.742 70.3851C201.386 70.5768 201.105 70.856 200.898 71.2235C200.695 71.5916 200.593 72.0367 200.593 72.5609Z" fill="black"/>
<path d="M186.81 30.9513H183.08V20.4147H186.84C187.899 20.4147 188.81 20.6256 189.574 21.0475C190.337 21.466 190.925 22.0679 191.336 22.8533C191.751 23.6388 191.958 24.5786 191.958 25.6727C191.958 26.7703 191.751 27.7135 191.336 28.5023C190.925 29.2913 190.334 29.8966 189.563 30.3185C188.796 30.7404 187.878 30.9513 186.81 30.9513ZM185.304 29.0426H186.717C187.375 29.0426 187.928 28.926 188.376 28.6927C188.829 28.456 189.167 28.0907 189.394 27.5968C189.623 27.0995 189.738 26.4582 189.738 25.6727C189.738 24.8941 189.623 24.2579 189.394 23.764C189.167 23.2701 188.83 22.9065 188.381 22.6733C187.933 22.44 187.38 22.3234 186.722 22.3234H185.304V29.0426ZM200.13 25.3023L198.126 25.4258C198.092 25.2543 198.018 25.0999 197.906 24.9627C197.793 24.8221 197.644 24.7106 197.459 24.6283C197.277 24.5426 197.06 24.4997 196.806 24.4997C196.467 24.4997 196.181 24.5717 195.948 24.7157C195.715 24.8564 195.599 25.045 195.599 25.2817C195.599 25.4704 195.674 25.6299 195.825 25.7602C195.976 25.8905 196.234 25.9952 196.601 26.074L198.029 26.3621C198.796 26.5199 199.369 26.7737 199.745 27.1236C200.122 27.4734 200.31 27.933 200.31 28.5023C200.31 29.0203 200.158 29.4747 199.853 29.8658C199.551 30.2567 199.137 30.562 198.61 30.7815C198.086 30.9976 197.481 31.1057 196.796 31.1057C195.752 31.1057 194.919 30.8878 194.299 30.4523C193.683 30.0132 193.321 29.4164 193.215 28.6618L195.367 28.5487C195.433 28.8676 195.59 29.1111 195.84 29.2792C196.09 29.4438 196.411 29.5262 196.801 29.5262C197.185 29.5262 197.493 29.4525 197.726 29.305C197.962 29.154 198.082 28.9603 198.086 28.7236C198.082 28.5247 197.998 28.3617 197.834 28.2348C197.669 28.1045 197.416 28.005 197.073 27.9365L195.707 27.6638C194.936 27.5094 194.363 27.2419 193.986 26.8612C193.612 26.4804 193.425 25.9952 193.425 25.4052C193.425 24.8976 193.562 24.4602 193.837 24.0932C194.114 23.7262 194.503 23.4433 195.003 23.2444C195.506 23.0454 196.096 22.946 196.77 22.946C197.767 22.946 198.551 23.1569 199.123 23.5788C199.699 24.0006 200.035 24.5752 200.13 25.3023ZM203.938 31.1005C203.435 31.1005 202.986 31.0131 202.593 30.8381C202.199 30.6598 201.887 30.3974 201.658 30.0509C201.432 29.7011 201.318 29.2655 201.318 28.7441C201.318 28.3052 201.399 27.9365 201.56 27.638C201.721 27.3396 201.94 27.0995 202.217 26.9178C202.495 26.736 202.81 26.5988 203.163 26.5062C203.519 26.4136 203.892 26.3484 204.283 26.3107C204.742 26.2626 205.112 26.2181 205.392 26.1769C205.673 26.1323 205.877 26.0671 206.004 25.9814C206.131 25.8956 206.194 25.7687 206.194 25.6007V25.5698C206.194 25.244 206.092 24.9919 205.886 24.8135C205.684 24.6352 205.396 24.546 205.023 24.546C204.629 24.546 204.315 24.6334 204.082 24.8084C203.85 24.9799 203.696 25.196 203.62 25.4566L201.596 25.292C201.699 24.8118 201.9 24.3968 202.202 24.0469C202.503 23.6937 202.892 23.4227 203.368 23.234C203.848 23.042 204.403 22.946 205.033 22.946C205.471 22.946 205.891 22.9974 206.292 23.1003C206.696 23.2032 207.054 23.3627 207.365 23.5788C207.68 23.7948 207.929 24.0727 208.111 24.4122C208.292 24.7483 208.383 25.1514 208.383 25.6212V30.9513H206.307V29.8554H206.245C206.119 30.1024 205.95 30.3202 205.737 30.5088C205.525 30.6941 205.27 30.8398 204.972 30.9462C204.674 31.049 204.329 31.1005 203.938 31.1005ZM204.566 29.5879C204.887 29.5879 205.172 29.5244 205.418 29.3975C205.665 29.2672 205.859 29.0923 205.999 28.8728C206.14 28.6533 206.21 28.4046 206.21 28.1268V27.2882C206.141 27.3328 206.047 27.3739 205.927 27.4117C205.811 27.446 205.679 27.4786 205.531 27.5094C205.384 27.5369 205.237 27.5626 205.089 27.5866C204.942 27.6072 204.809 27.626 204.689 27.6432C204.432 27.6809 204.207 27.7409 204.016 27.8232C203.824 27.9056 203.675 28.0171 203.569 28.1577C203.462 28.2948 203.41 28.4664 203.41 28.6722C203.41 28.9706 203.518 29.1986 203.733 29.3564C203.952 29.5107 204.23 29.5879 204.566 29.5879ZM210.081 30.9513V23.0489H212.269V30.9513H210.081ZM211.18 22.0302C210.855 22.0302 210.576 21.9222 210.343 21.706C210.114 21.4865 209.999 21.2242 209.999 20.9189C209.999 20.6171 210.114 20.3581 210.343 20.142C210.576 19.9225 210.855 19.8127 211.18 19.8127C211.506 19.8127 211.783 19.9225 212.013 20.142C212.246 20.3581 212.362 20.6171 212.362 20.9189C212.362 21.2242 212.246 21.4865 212.013 21.706C211.783 21.9222 211.506 22.0302 211.18 22.0302ZM216.211 26.3827V30.9513H214.023V23.0489H216.109V24.4431H216.201C216.376 23.9835 216.669 23.6199 217.08 23.3524C217.491 23.0815 217.989 22.946 218.575 22.946C219.123 22.946 219.601 23.066 220.008 23.3061C220.416 23.5462 220.732 23.8892 220.959 24.335C221.185 24.7775 221.298 25.3057 221.298 25.9197V30.9513H219.109V26.3107C219.113 25.827 218.989 25.4498 218.739 25.1788C218.489 24.9044 218.145 24.7672 217.707 24.7672C217.412 24.7672 217.152 24.8307 216.925 24.9576C216.703 25.0845 216.528 25.2697 216.402 25.5132C216.278 25.7533 216.215 26.0432 216.211 26.3827Z" fill="black"/>
<path d="M166.382 9.21948H148.626C144.994 9.21948 142.049 12.1679 142.049 15.8048V33.5853C142.049 37.2223 144.994 40.1707 148.626 40.1707H166.382C170.014 40.1707 172.958 37.2223 172.958 33.5853V15.8048C172.958 12.1679 170.014 9.21948 166.382 9.21948Z" fill="#0048FF"/>
<path d="M158.161 16.134C162.883 16.134 166.71 19.9669 166.71 24.695C166.71 29.4231 162.883 33.256 158.161 33.256H150.752C150.122 33.256 149.612 32.745 149.612 32.1146V17.2755C149.612 16.6451 150.122 16.134 150.752 16.134H158.161ZM157.894 18.2743C154.205 18.2743 151.215 21.2687 151.215 24.9626C151.215 28.6564 154.205 31.6508 157.894 31.6508C161.583 31.6508 164.573 28.6564 164.573 24.9626C164.573 21.2687 161.583 18.2743 157.894 18.2743Z" fill="white"/>
<path d="M162.971 24.9623C162.971 22.7759 161.591 20.912 159.657 20.1944C159.023 19.959 158.428 20.4967 158.428 21.1742V28.7504C158.428 29.4279 159.023 29.9656 159.657 29.7302C161.591 29.0126 162.971 27.1487 162.971 24.9623Z" fill="white"/>
<path d="M156.764 20.0062C156.3 20.1119 155.86 20.2813 155.453 20.5048C155.13 20.6828 154.956 21.0371 154.956 21.4065V28.5189C154.956 28.8883 155.13 29.2427 155.453 29.4206C155.86 29.6441 156.3 29.8135 156.764 29.9193C157.378 30.0591 157.895 29.5348 157.895 28.9043V21.0211C157.895 20.3907 157.378 19.8663 156.764 20.0062Z" fill="white"/>
<path d="M153.628 22.2069C153.115 23.0008 152.818 23.9469 152.818 24.9626C152.818 25.9782 153.115 26.9244 153.628 27.7182C153.897 28.1355 154.462 27.9061 154.462 27.4093V22.5158C154.462 22.019 153.897 21.7897 153.628 22.2069Z" fill="white"/>
</g>
<defs>
<clipPath id="clip0_898_913">
<rect width="267" height="135" fill="white"/>
</clipPath>
</defs>
</svg>
