<svg width="188" height="124" viewBox="0 0 188 124" fill="none" xmlns="http://www.w3.org/2000/svg">
<path d="M88.1477 65.295H32.4767V60.136H88.1477V65.295ZM62.4297 25.486L62.5837 26.872L26.4707 78H18.0777L55.5767 25.486H62.4297ZM93.6917 78L57.5787 26.872L57.8097 25.486H64.6627L102.162 78H93.6917ZM157.38 42.041L164.002 41.656V78H158.304L157.38 68.991V42.041ZM164.002 41.656L161.538 46.969C159.28 46.507 156.559 46.0963 153.376 45.737C150.245 45.3263 146.934 45.0183 143.443 44.813C140.004 44.5563 136.642 44.428 133.356 44.428C128.993 44.428 125.194 44.89 121.96 45.814C118.726 46.738 116.237 48.2523 114.491 50.357C112.797 52.4617 111.95 55.285 111.95 58.827C111.95 63.9603 113.336 67.6563 116.108 69.915C118.88 72.1223 123.269 73.226 129.275 73.226C133.279 73.226 137.206 72.764 141.056 71.84C144.906 70.916 148.705 69.7353 152.452 68.298C156.2 66.8607 159.819 65.372 163.309 63.832V67.99C161.051 69.222 158.561 70.4797 155.84 71.763C153.12 73.0463 150.271 74.227 147.293 75.305C144.316 76.3317 141.21 77.1787 137.976 77.846C134.742 78.462 131.457 78.77 128.12 78.77C123.192 78.77 119.034 78.077 115.646 76.691C112.258 75.305 109.692 73.149 107.946 70.223C106.201 67.297 105.328 63.5497 105.328 58.981C105.328 53.9503 106.535 49.972 108.947 47.046C111.36 44.12 114.722 42.041 119.034 40.809C123.346 39.5257 128.351 38.884 134.049 38.884C139.696 38.884 145.112 39.192 150.296 39.808C155.481 40.3727 160.05 40.9887 164.002 41.656Z" fill="#0048FF"/>
<path d="M46.1386 87.405L46.9336 87.915C46.5336 88.475 46.1536 89.09 45.7936 89.76C45.4336 90.42 45.1386 91.155 44.9086 91.965C44.6886 92.775 44.5786 93.67 44.5786 94.65C44.5786 95.63 44.6886 96.525 44.9086 97.335C45.1386 98.145 45.4336 98.885 45.7936 99.555C46.1536 100.225 46.5336 100.835 46.9336 101.385L46.1386 101.895C45.7886 101.475 45.4436 101.005 45.1036 100.485C44.7736 99.965 44.4736 99.4 44.2036 98.79C43.9336 98.18 43.7186 97.53 43.5586 96.84C43.4086 96.14 43.3336 95.41 43.3336 94.65C43.3336 93.89 43.4086 93.165 43.5586 92.475C43.7186 91.785 43.9336 91.135 44.2036 90.525C44.4736 89.915 44.7736 89.35 45.1036 88.83C45.4436 88.3 45.7886 87.825 46.1386 87.405ZM55.8029 99H54.4379V88.77H64.1129C64.7329 88.77 65.2829 88.835 65.7629 88.965C66.2429 89.085 66.6379 89.28 66.9479 89.55C67.2679 89.81 67.5079 90.15 67.6679 90.57C67.8279 90.98 67.9079 91.465 67.9079 92.025C67.9079 92.735 67.7779 93.325 67.5179 93.795C67.2579 94.265 66.8629 94.625 66.3329 94.875C65.8129 95.115 65.1529 95.245 64.3529 95.265H63.0179L63.9779 95.97L67.6379 99H65.8979L61.4879 95.325H55.8029V99ZM55.8029 89.955V94.26H64.0529C64.9329 94.26 65.5629 94.09 65.9429 93.75C66.3229 93.41 66.5129 92.865 66.5129 92.115C66.5129 91.335 66.3229 90.78 65.9429 90.45C65.5629 90.12 64.9329 89.955 64.0529 89.955H55.8029ZM75.4054 98.115C76.1254 98.115 76.8004 98.085 77.4304 98.025C78.0704 97.955 78.6304 97.88 79.1104 97.8C79.6004 97.72 79.9654 97.65 80.2054 97.59L80.4604 98.58C80.0604 98.68 79.5804 98.775 79.0204 98.865C78.4704 98.955 77.8754 99.025 77.2354 99.075C76.5954 99.135 75.9554 99.165 75.3154 99.165C73.9754 99.165 72.8554 99.045 71.9554 98.805C71.0554 98.555 70.3754 98.145 69.9154 97.575C69.4654 97.005 69.2404 96.235 69.2404 95.265C69.2404 94.305 69.4754 93.54 69.9454 92.97C70.4154 92.4 71.0854 91.99 71.9554 91.74C72.8254 91.49 73.8554 91.365 75.0454 91.365C75.8854 91.365 76.6504 91.425 77.3404 91.545C78.0404 91.665 78.6454 91.86 79.1554 92.13C79.6654 92.4 80.0604 92.765 80.3404 93.225C80.6304 93.685 80.7754 94.255 80.7754 94.935C80.7754 95.005 80.7704 95.085 80.7604 95.175C80.7504 95.265 80.7404 95.355 80.7304 95.445C80.7304 95.525 80.7254 95.59 80.7154 95.64H69.9304V94.845H79.9204L79.5304 95.22C79.5304 94.57 79.4004 94.03 79.1404 93.6C78.8904 93.17 78.4354 92.85 77.7754 92.64C77.1254 92.42 76.2004 92.31 75.0004 92.31C74.0004 92.31 73.1604 92.4 72.4804 92.58C71.8104 92.76 71.3104 93.065 70.9804 93.495C70.6504 93.915 70.4854 94.49 70.4854 95.22C70.4854 95.81 70.5854 96.295 70.7854 96.675C70.9854 97.055 71.2904 97.35 71.7004 97.56C72.1104 97.77 72.6204 97.915 73.2304 97.995C73.8504 98.075 74.5754 98.115 75.4054 98.115ZM93.9426 91.92L93.4776 92.955C93.0276 92.865 92.4926 92.785 91.8726 92.715C91.2626 92.635 90.6126 92.575 89.9226 92.535C89.2426 92.485 88.5826 92.46 87.9426 92.46C87.0926 92.46 86.3526 92.545 85.7226 92.715C85.0926 92.875 84.6076 93.145 84.2676 93.525C83.9376 93.905 83.7726 94.42 83.7726 95.07C83.7726 96 84.0426 96.67 84.5826 97.08C85.1226 97.49 85.9776 97.695 87.1476 97.695C87.9276 97.695 88.6976 97.62 89.4576 97.47C90.2176 97.32 90.9626 97.115 91.6926 96.855C92.4326 96.595 93.1376 96.315 93.8076 96.015V96.825C93.2476 97.145 92.6026 97.45 91.8726 97.74C91.1526 98.03 90.3826 98.265 89.5626 98.445C88.7426 98.625 87.9026 98.715 87.0426 98.715C86.0326 98.715 85.1876 98.59 84.5076 98.34C83.8376 98.08 83.3326 97.685 82.9926 97.155C82.6526 96.615 82.4826 95.925 82.4826 95.085C82.4826 94.155 82.7176 93.425 83.1876 92.895C83.6576 92.355 84.3126 91.97 85.1526 91.74C86.0026 91.5 86.9926 91.38 88.1226 91.38C89.2226 91.38 90.2776 91.44 91.2876 91.56C92.2976 91.67 93.1826 91.79 93.9426 91.92ZM93.9426 91.92V97.905C93.9426 98.895 93.7376 99.675 93.3276 100.245C92.9176 100.825 92.2726 101.24 91.3926 101.49C90.5226 101.75 89.3826 101.88 87.9726 101.88C87.4726 101.88 86.9126 101.855 86.2926 101.805C85.6826 101.755 85.0726 101.675 84.4626 101.565C83.8526 101.465 83.2926 101.34 82.7826 101.19L83.0676 100.17C83.7776 100.36 84.5526 100.52 85.3926 100.65C86.2426 100.78 87.1226 100.845 88.0326 100.845C89.2126 100.845 90.1476 100.75 90.8376 100.56C91.5276 100.37 92.0126 100.065 92.2926 99.645C92.5826 99.225 92.7226 98.665 92.7126 97.965L92.6676 97.08V91.995L93.9426 91.92ZM96.037 95.565V91.53H97.312V95.445C97.312 95.995 97.427 96.465 97.657 96.855C97.887 97.245 98.262 97.545 98.782 97.755C99.302 97.965 99.987 98.07 100.837 98.07C101.347 98.07 101.932 98.01 102.592 97.89C103.252 97.77 103.947 97.6 104.677 97.38C105.417 97.15 106.162 96.88 106.912 96.57V97.41C106.472 97.62 105.992 97.83 105.472 98.04C104.962 98.25 104.427 98.44 103.867 98.61C103.317 98.78 102.752 98.915 102.172 99.015C101.592 99.125 101.017 99.18 100.447 99.18C99.527 99.18 98.737 99.06 98.077 98.82C97.427 98.57 96.922 98.18 96.562 97.65C96.212 97.12 96.037 96.425 96.037 95.565ZM107.197 91.53V99H106.087L105.922 97.47V91.53H107.197ZM110.762 87.75V99H109.472V87.75H110.762ZM122.916 91.995L124.206 91.92V99H123.096L122.916 97.245V91.995ZM124.206 91.92L123.726 92.955C123.286 92.865 122.756 92.785 122.136 92.715C121.526 92.635 120.881 92.575 120.201 92.535C119.531 92.485 118.876 92.46 118.236 92.46C117.386 92.46 116.646 92.55 116.016 92.73C115.386 92.91 114.901 93.205 114.561 93.615C114.231 94.025 114.066 94.575 114.066 95.265C114.066 96.265 114.336 96.985 114.876 97.425C115.416 97.855 116.271 98.07 117.441 98.07C118.221 98.07 118.986 97.98 119.736 97.8C120.486 97.62 121.226 97.39 121.956 97.11C122.686 96.83 123.391 96.54 124.071 96.24V97.05C123.631 97.29 123.146 97.535 122.616 97.785C122.086 98.035 121.531 98.265 120.951 98.475C120.371 98.675 119.766 98.84 119.136 98.97C118.506 99.09 117.866 99.15 117.216 99.15C116.256 99.15 115.446 99.015 114.786 98.745C114.126 98.475 113.626 98.055 113.286 97.485C112.946 96.915 112.776 96.185 112.776 95.295C112.776 94.315 113.011 93.54 113.481 92.97C113.951 92.4 114.606 91.995 115.446 91.755C116.286 91.505 117.261 91.38 118.371 91.38C119.471 91.38 120.526 91.44 121.536 91.56C122.546 91.67 123.436 91.79 124.206 91.92ZM126.479 99V91.53H127.589L127.769 93.63V99H126.479ZM133.454 91.365V92.535C132.904 92.535 132.364 92.57 131.834 92.64C131.304 92.71 130.769 92.83 130.229 93C129.689 93.16 129.134 93.375 128.564 93.645C127.994 93.905 127.394 94.23 126.764 94.62V93.81C127.174 93.5 127.619 93.205 128.099 92.925C128.589 92.635 129.114 92.375 129.674 92.145C130.234 91.905 130.829 91.715 131.459 91.575C132.089 91.435 132.754 91.365 133.454 91.365ZM143.06 94.65C143.06 93.67 142.945 92.775 142.715 91.965C142.495 91.155 142.205 90.42 141.845 89.76C141.485 89.09 141.105 88.475 140.705 87.915L141.5 87.405C141.85 87.825 142.19 88.3 142.52 88.83C142.86 89.35 143.16 89.915 143.42 90.525C143.69 91.135 143.905 91.785 144.065 92.475C144.225 93.165 144.305 93.89 144.305 94.65C144.305 95.41 144.225 96.14 144.065 96.84C143.905 97.53 143.69 98.18 143.42 98.79C143.16 99.4 142.86 99.965 142.52 100.485C142.19 101.005 141.85 101.475 141.5 101.895L140.705 101.385C141.105 100.835 141.485 100.225 141.845 99.555C142.205 98.885 142.495 98.145 142.715 97.335C142.945 96.525 143.06 95.63 143.06 94.65Z" fill="#0048FF"/>
</svg>
