<svg width="187" height="124" viewBox="0 0 187 124" fill="none" xmlns="http://www.w3.org/2000/svg">
<path d="M88.1046 66.835H32.4336V58.134H88.1046V66.835ZM64.2346 25.486L64.1576 27.642L31.0476 78H16.2636L51.6836 25.486H64.2346ZM88.5666 78L55.4566 27.642V25.486H68.0846L103.505 78H88.5666ZM154.304 41.81L165.854 40.963V78H155.767L154.304 69.068V41.81ZM165.854 40.963L161.08 49.818C158.718 49.4587 155.921 49.125 152.687 48.817C149.453 48.4577 146.09 48.1753 142.6 47.97C139.109 47.7647 135.747 47.662 132.513 47.662C128.971 47.662 125.942 48.0213 123.427 48.74C120.963 49.4587 119.063 50.6137 117.729 52.205C116.445 53.745 115.804 55.824 115.804 58.442C115.804 62.3433 116.882 65.1153 119.038 66.758C121.194 68.4007 124.71 69.222 129.587 69.222C133.231 69.222 137.004 68.837 140.906 68.067C144.807 67.2457 148.785 66.1677 152.841 64.833C156.947 63.4983 161.028 62.0353 165.084 60.444V66.912C162.774 68.1953 160.207 69.53 157.384 70.916C154.56 72.302 151.532 73.5853 148.298 74.766C145.064 75.9467 141.676 76.922 138.134 77.692C134.643 78.4107 131.05 78.77 127.354 78.77C122.631 78.77 118.55 78.1027 115.111 76.768C111.671 75.4333 109.002 73.303 107.103 70.377C105.255 67.3997 104.331 63.5497 104.331 58.827C104.331 53.6423 105.563 49.5613 108.027 46.584C110.491 43.6067 113.93 41.502 118.345 40.27C122.759 38.9867 127.867 38.345 133.668 38.345C140.033 38.345 145.936 38.6273 151.378 39.192C156.819 39.7053 161.644 40.2957 165.854 40.963Z" fill="#0048FF"/>
<path d="M37.3203 87.405L38.1153 87.915C37.7153 88.475 37.3353 89.09 36.9753 89.76C36.6153 90.42 36.3203 91.155 36.0903 91.965C35.8703 92.775 35.7603 93.67 35.7603 94.65C35.7603 95.63 35.8703 96.525 36.0903 97.335C36.3203 98.145 36.6153 98.885 36.9753 99.555C37.3353 100.225 37.7153 100.835 38.1153 101.385L37.3203 101.895C36.9703 101.475 36.6253 101.005 36.2853 100.485C35.9553 99.965 35.6553 99.4 35.3853 98.79C35.1153 98.18 34.9003 97.53 34.7403 96.84C34.5903 96.14 34.5153 95.41 34.5153 94.65C34.5153 93.89 34.5903 93.165 34.7403 92.475C34.9003 91.785 35.1153 91.135 35.3853 90.525C35.6553 89.915 35.9553 89.35 36.2853 88.83C36.6253 88.3 36.9703 87.825 37.3203 87.405ZM58.9314 96.36C58.9314 96.86 58.8314 97.29 58.6314 97.65C58.4314 98 58.0964 98.29 57.6264 98.52C57.1564 98.74 56.5164 98.9 55.7064 99C54.9064 99.11 53.8964 99.165 52.6764 99.165C51.9264 99.165 51.1314 99.135 50.2914 99.075C49.4514 99.015 48.6414 98.93 47.8614 98.82C47.0914 98.71 46.4164 98.595 45.8364 98.475L46.0314 97.35C46.5014 97.45 47.0164 97.545 47.5764 97.635C48.1464 97.715 48.7414 97.79 49.3614 97.86C49.9814 97.92 50.5964 97.97 51.2064 98.01C51.8264 98.04 52.4064 98.055 52.9464 98.055C53.9364 98.055 54.7364 98.025 55.3464 97.965C55.9564 97.895 56.4264 97.795 56.7564 97.665C57.0864 97.525 57.3114 97.345 57.4314 97.125C57.5614 96.905 57.6264 96.64 57.6264 96.33C57.6264 95.89 57.5414 95.56 57.3714 95.34C57.2014 95.12 56.9464 94.96 56.6064 94.86C56.2764 94.76 55.8614 94.68 55.3614 94.62L49.4664 94.05C48.6664 93.98 47.9814 93.86 47.4114 93.69C46.8514 93.51 46.4214 93.245 46.1214 92.895C45.8314 92.535 45.6864 92.04 45.6864 91.41C45.6864 90.74 45.8814 90.2 46.2714 89.79C46.6614 89.37 47.3064 89.07 48.2064 88.89C49.1064 88.7 50.3164 88.605 51.8364 88.605C52.3464 88.605 52.8914 88.625 53.4714 88.665C54.0514 88.695 54.6364 88.74 55.2264 88.8C55.8264 88.86 56.4064 88.93 56.9664 89.01C57.5264 89.09 58.0314 89.18 58.4814 89.28L58.2564 90.345C57.8264 90.255 57.3314 90.175 56.7714 90.105C56.2214 90.025 55.6414 89.96 55.0314 89.91C54.4314 89.85 53.8364 89.805 53.2464 89.775C52.6564 89.735 52.1064 89.715 51.5964 89.715C50.6364 89.715 49.8514 89.745 49.2414 89.805C48.6314 89.865 48.1614 89.965 47.8314 90.105C47.5114 90.235 47.2864 90.405 47.1564 90.615C47.0364 90.825 46.9764 91.085 46.9764 91.395C46.9764 91.775 47.0714 92.07 47.2614 92.28C47.4514 92.48 47.7264 92.625 48.0864 92.715C48.4464 92.795 48.8864 92.865 49.4064 92.925L55.1214 93.48C55.7014 93.54 56.2264 93.625 56.6964 93.735C57.1664 93.835 57.5664 93.99 57.8964 94.2C58.2264 94.4 58.4814 94.675 58.6614 95.025C58.8414 95.375 58.9314 95.82 58.9314 96.36ZM66.8214 98.115C67.5414 98.115 68.2164 98.085 68.8464 98.025C69.4864 97.955 70.0464 97.88 70.5264 97.8C71.0164 97.72 71.3814 97.65 71.6214 97.59L71.8764 98.58C71.4764 98.68 70.9964 98.775 70.4364 98.865C69.8864 98.955 69.2914 99.025 68.6514 99.075C68.0114 99.135 67.3714 99.165 66.7314 99.165C65.3914 99.165 64.2714 99.045 63.3714 98.805C62.4714 98.555 61.7914 98.145 61.3314 97.575C60.8814 97.005 60.6564 96.235 60.6564 95.265C60.6564 94.305 60.8914 93.54 61.3614 92.97C61.8314 92.4 62.5014 91.99 63.3714 91.74C64.2414 91.49 65.2714 91.365 66.4614 91.365C67.3014 91.365 68.0664 91.425 68.7564 91.545C69.4564 91.665 70.0614 91.86 70.5714 92.13C71.0814 92.4 71.4764 92.765 71.7564 93.225C72.0464 93.685 72.1914 94.255 72.1914 94.935C72.1914 95.005 72.1864 95.085 72.1764 95.175C72.1664 95.265 72.1564 95.355 72.1464 95.445C72.1464 95.525 72.1414 95.59 72.1314 95.64H61.3464V94.845H71.3364L70.9464 95.22C70.9464 94.57 70.8164 94.03 70.5564 93.6C70.3064 93.17 69.8514 92.85 69.1914 92.64C68.5414 92.42 67.6164 92.31 66.4164 92.31C65.4164 92.31 64.5764 92.4 63.8964 92.58C63.2264 92.76 62.7264 93.065 62.3964 93.495C62.0664 93.915 61.9014 94.49 61.9014 95.22C61.9014 95.81 62.0014 96.295 62.2014 96.675C62.4014 97.055 62.7064 97.35 63.1164 97.56C63.5264 97.77 64.0364 97.915 64.6464 97.995C65.2664 98.075 65.9914 98.115 66.8214 98.115ZM84.4436 94.98V99H83.1536V95.085C83.1536 94.535 83.0486 94.065 82.8386 93.675C82.6386 93.285 82.3136 92.985 81.8636 92.775C81.4236 92.565 80.8286 92.46 80.0786 92.46C79.5986 92.46 79.0586 92.52 78.4586 92.64C77.8686 92.76 77.2386 92.93 76.5686 93.15C75.8986 93.37 75.2086 93.625 74.4986 93.915V93.075C74.9186 92.865 75.3636 92.66 75.8336 92.46C76.3136 92.26 76.8086 92.08 77.3186 91.92C77.8386 91.75 78.3586 91.615 78.8786 91.515C79.4086 91.415 79.9436 91.365 80.4836 91.365C81.3136 91.365 82.0186 91.49 82.5986 91.74C83.1886 91.98 83.6436 92.365 83.9636 92.895C84.2836 93.415 84.4436 94.11 84.4436 94.98ZM74.1986 99V91.545H75.3086L75.4886 93.075V99H74.1986ZM93.3986 94.98V99H92.1086V95.085C92.1086 94.535 92.0036 94.065 91.7936 93.675C91.5936 93.285 91.2686 92.985 90.8186 92.775C90.3786 92.565 89.7836 92.46 89.0336 92.46C88.5336 92.46 87.9636 92.52 87.3236 92.64C86.6936 92.75 86.0186 92.915 85.2986 93.135C84.5886 93.345 83.8586 93.605 83.1086 93.915V93.075C83.5586 92.865 84.0336 92.66 84.5336 92.46C85.0336 92.25 85.5536 92.065 86.0936 91.905C86.6436 91.735 87.1936 91.605 87.7436 91.515C88.3036 91.415 88.8686 91.365 89.4386 91.365C90.2686 91.365 90.9736 91.49 91.5536 91.74C92.1436 91.98 92.5986 92.365 92.9186 92.895C93.2386 93.415 93.3986 94.11 93.3986 94.98ZM96.8753 88.515V90.405H95.5853V88.515H96.8753ZM95.5853 99V91.53H96.8753V99H95.5853ZM105.324 99H99.7438V97.935H105.279C106.119 97.935 106.839 97.845 107.439 97.665C108.049 97.485 108.519 97.195 108.849 96.795C109.179 96.395 109.344 95.86 109.344 95.19C109.344 94.23 109.074 93.53 108.534 93.09C107.994 92.65 107.164 92.43 106.044 92.43C105.264 92.43 104.489 92.52 103.719 92.7C102.949 92.87 102.199 93.09 101.469 93.36C100.739 93.62 100.024 93.89 99.3238 94.17V93.225C99.9038 92.925 100.559 92.635 101.289 92.355C102.019 92.065 102.799 91.83 103.629 91.65C104.459 91.46 105.299 91.365 106.149 91.365C107.649 91.365 108.769 91.68 109.509 92.31C110.249 92.93 110.619 93.885 110.619 95.175C110.619 96.105 110.399 96.85 109.959 97.41C109.529 97.97 108.914 98.375 108.114 98.625C107.324 98.875 106.394 99 105.324 99ZM99.1888 99V87.75H100.479V99H99.1888ZM112.336 95.265C112.336 93.905 112.846 92.915 113.866 92.295C114.886 91.675 116.476 91.365 118.636 91.365C120.796 91.365 122.386 91.675 123.406 92.295C124.426 92.915 124.936 93.905 124.936 95.265C124.936 96.615 124.426 97.605 123.406 98.235C122.386 98.855 120.796 99.165 118.636 99.165C116.476 99.165 114.886 98.855 113.866 98.235C112.846 97.605 112.336 96.615 112.336 95.265ZM113.626 95.265C113.626 95.925 113.786 96.465 114.106 96.885C114.436 97.295 114.966 97.595 115.696 97.785C116.436 97.965 117.416 98.055 118.636 98.055C119.856 98.055 120.831 97.965 121.561 97.785C122.301 97.595 122.831 97.295 123.151 96.885C123.481 96.465 123.646 95.925 123.646 95.265C123.646 94.605 123.481 94.07 123.151 93.66C122.831 93.25 122.301 92.95 121.561 92.76C120.831 92.56 119.856 92.46 118.636 92.46C117.416 92.46 116.436 92.56 115.696 92.76C114.966 92.95 114.436 93.25 114.106 93.66C113.786 94.07 113.626 94.605 113.626 95.265ZM128.238 87.75V99H126.948V87.75H128.238ZM141.186 91.965L141.126 92.97C140.686 92.89 140.161 92.81 139.551 92.73C138.941 92.65 138.301 92.585 137.631 92.535C136.961 92.485 136.311 92.46 135.681 92.46C134.821 92.46 134.081 92.55 133.461 92.73C132.851 92.91 132.376 93.21 132.036 93.63C131.706 94.05 131.541 94.615 131.541 95.325C131.541 96.285 131.816 96.985 132.366 97.425C132.916 97.855 133.776 98.07 134.946 98.07C135.726 98.07 136.491 97.985 137.241 97.815C137.991 97.645 138.726 97.43 139.446 97.17C140.176 96.9 140.876 96.625 141.546 96.345V97.125C141.116 97.355 140.636 97.59 140.106 97.83C139.586 98.06 139.036 98.275 138.456 98.475C137.876 98.675 137.276 98.84 136.656 98.97C136.036 99.09 135.406 99.15 134.766 99.15C133.776 99.15 132.946 99.02 132.276 98.76C131.616 98.49 131.111 98.075 130.761 97.515C130.421 96.955 130.251 96.24 130.251 95.37C130.251 94.38 130.481 93.595 130.941 93.015C131.411 92.435 132.061 92.02 132.891 91.77C133.721 91.51 134.681 91.38 135.771 91.38C136.791 91.38 137.771 91.445 138.711 91.575C139.651 91.695 140.476 91.825 141.186 91.965ZM140.391 87.75H141.681V99H140.571L140.391 97.29V87.75ZM151.879 94.65C151.879 93.67 151.764 92.775 151.534 91.965C151.314 91.155 151.024 90.42 150.664 89.76C150.304 89.09 149.924 88.475 149.524 87.915L150.319 87.405C150.669 87.825 151.009 88.3 151.339 88.83C151.679 89.35 151.979 89.915 152.239 90.525C152.509 91.135 152.724 91.785 152.884 92.475C153.044 93.165 153.124 93.89 153.124 94.65C153.124 95.41 153.044 96.14 152.884 96.84C152.724 97.53 152.509 98.18 152.239 98.79C151.979 99.4 151.679 99.965 151.339 100.485C151.009 101.005 150.669 101.475 150.319 101.895L149.524 101.385C149.924 100.835 150.304 100.225 150.664 99.555C151.024 98.885 151.314 98.145 151.534 97.335C151.764 96.525 151.879 95.63 151.879 94.65Z" fill="#0048FF"/>
</svg>
