<svg width="187" height="124" viewBox="0 0 187 124" fill="none" xmlns="http://www.w3.org/2000/svg">
<path d="M87.6513 64.602H31.9803V60.983H87.6513V64.602ZM61.0863 25.486L61.4713 26.487L23.9723 78H18.4283L56.7743 25.486H61.0863ZM95.5053 78L58.0833 26.487L58.3913 25.486H62.7033L101.049 78H95.5053ZM158.36 42.195L162.749 41.964V78H158.976L158.36 68.914V42.195ZM162.749 41.964L161.363 45.66C159.104 45.198 156.409 44.7617 153.278 44.351C150.198 43.9403 146.912 43.6067 143.422 43.35C139.982 43.0933 136.62 42.965 133.335 42.965C128.561 42.965 124.403 43.4783 120.861 44.505C117.319 45.5317 114.572 47.2257 112.622 49.587C110.722 51.897 109.773 55.0283 109.773 58.981C109.773 64.679 111.287 68.7857 114.316 71.301C117.396 73.765 122.17 74.997 128.638 74.997C132.847 74.997 136.851 74.5093 140.65 73.534C144.5 72.5587 148.221 71.3267 151.815 69.838C155.408 68.3493 158.822 66.8607 162.056 65.372V68.452C159.797 69.684 157.333 70.916 154.664 72.148C152.046 73.38 149.274 74.4837 146.348 75.459C143.473 76.4343 140.47 77.23 137.339 77.846C134.259 78.462 131.153 78.77 128.022 78.77C122.991 78.77 118.807 78.077 115.471 76.691C112.134 75.2537 109.619 73.072 107.925 70.146C106.231 67.22 105.384 63.524 105.384 59.058C105.384 54.0787 106.564 50.1517 108.926 47.277C111.338 44.351 114.675 42.272 118.936 41.04C123.196 39.808 128.15 39.192 133.797 39.192C139.135 39.192 144.32 39.4743 149.351 40.039C154.433 40.6037 158.899 41.2453 162.749 41.964Z" fill="#0048FF"/>
<path d="M58.8095 87.405L59.6045 87.915C59.2045 88.475 58.8245 89.09 58.4645 89.76C58.1045 90.42 57.8095 91.155 57.5795 91.965C57.3595 92.775 57.2495 93.67 57.2495 94.65C57.2495 95.63 57.3595 96.525 57.5795 97.335C57.8095 98.145 58.1045 98.885 58.4645 99.555C58.8245 100.225 59.2045 100.835 59.6045 101.385L58.8095 101.895C58.4595 101.475 58.1145 101.005 57.7745 100.485C57.4445 99.965 57.1445 99.4 56.8745 98.79C56.6045 98.18 56.3895 97.53 56.2295 96.84C56.0795 96.14 56.0045 95.41 56.0045 94.65C56.0045 93.89 56.0795 93.165 56.2295 92.475C56.3895 91.785 56.6045 91.135 56.8745 90.525C57.1445 89.915 57.4445 89.35 57.7745 88.83C58.1145 88.3 58.4595 87.825 58.8095 87.405ZM68.4738 97.815H80.0538V99H67.1088V88.77H68.4738V97.815ZM82.7982 88.515V90.405H81.5082V88.515H82.7982ZM81.5082 99V91.53H82.7982V99H81.5082ZM96.2717 91.92L95.8067 92.955C95.3567 92.865 94.8217 92.785 94.2017 92.715C93.5917 92.635 92.9417 92.575 92.2517 92.535C91.5717 92.485 90.9117 92.46 90.2717 92.46C89.4217 92.46 88.6817 92.545 88.0517 92.715C87.4217 92.875 86.9367 93.145 86.5967 93.525C86.2667 93.905 86.1017 94.42 86.1017 95.07C86.1017 96 86.3717 96.67 86.9117 97.08C87.4517 97.49 88.3067 97.695 89.4767 97.695C90.2567 97.695 91.0267 97.62 91.7867 97.47C92.5467 97.32 93.2917 97.115 94.0217 96.855C94.7617 96.595 95.4667 96.315 96.1367 96.015V96.825C95.5767 97.145 94.9317 97.45 94.2017 97.74C93.4817 98.03 92.7117 98.265 91.8917 98.445C91.0717 98.625 90.2317 98.715 89.3717 98.715C88.3617 98.715 87.5167 98.59 86.8367 98.34C86.1667 98.08 85.6617 97.685 85.3217 97.155C84.9817 96.615 84.8117 95.925 84.8117 95.085C84.8117 94.155 85.0467 93.425 85.5167 92.895C85.9867 92.355 86.6417 91.97 87.4817 91.74C88.3317 91.5 89.3217 91.38 90.4517 91.38C91.5517 91.38 92.6067 91.44 93.6167 91.56C94.6267 91.67 95.5117 91.79 96.2717 91.92ZM96.2717 91.92V97.905C96.2717 98.895 96.0667 99.675 95.6567 100.245C95.2467 100.825 94.6017 101.24 93.7217 101.49C92.8517 101.75 91.7117 101.88 90.3017 101.88C89.8017 101.88 89.2417 101.855 88.6217 101.805C88.0117 101.755 87.4017 101.675 86.7917 101.565C86.1817 101.465 85.6217 101.34 85.1117 101.19L85.3967 100.17C86.1067 100.36 86.8817 100.52 87.7217 100.65C88.5717 100.78 89.4517 100.845 90.3617 100.845C91.5417 100.845 92.4767 100.75 93.1667 100.56C93.8567 100.37 94.3417 100.065 94.6217 99.645C94.9117 99.225 95.0517 98.665 95.0417 97.965L94.9967 97.08V91.995L96.2717 91.92ZM109.526 94.98V99H108.251V95.085C108.251 94.535 108.136 94.065 107.906 93.675C107.686 93.285 107.326 92.985 106.826 92.775C106.326 92.565 105.661 92.46 104.831 92.46C104.021 92.46 103.086 92.59 102.026 92.85C100.976 93.1 99.8861 93.455 98.7561 93.915V93.03C99.2061 92.82 99.6811 92.615 100.181 92.415C100.681 92.215 101.206 92.035 101.756 91.875C102.306 91.715 102.871 91.59 103.451 91.5C104.041 91.41 104.641 91.365 105.251 91.365C106.141 91.365 106.906 91.49 107.546 91.74C108.186 91.98 108.676 92.365 109.016 92.895C109.356 93.415 109.526 94.11 109.526 94.98ZM98.4711 99V87.75H99.7611V99H98.4711ZM120.488 92.61H110.813V91.53H120.488V92.61ZM112.733 95.235V91.755L112.973 89.64H114.023V95.16C114.023 95.87 114.113 96.44 114.293 96.87C114.473 97.3 114.793 97.61 115.253 97.8C115.723 97.98 116.368 98.07 117.188 98.07C117.848 98.07 118.463 98.025 119.033 97.935C119.613 97.835 120.153 97.73 120.653 97.62L120.908 98.67C120.398 98.79 119.813 98.9 119.153 99C118.493 99.11 117.808 99.165 117.098 99.165C116.048 99.165 115.203 99.04 114.563 98.79C113.923 98.53 113.458 98.115 113.168 97.545C112.878 96.965 112.733 96.195 112.733 95.235ZM130.389 94.65C130.389 93.67 130.274 92.775 130.044 91.965C129.824 91.155 129.534 90.42 129.174 89.76C128.814 89.09 128.434 88.475 128.034 87.915L128.829 87.405C129.179 87.825 129.519 88.3 129.849 88.83C130.189 89.35 130.489 89.915 130.749 90.525C131.019 91.135 131.234 91.785 131.394 92.475C131.554 93.165 131.634 93.89 131.634 94.65C131.634 95.41 131.554 96.14 131.394 96.84C131.234 97.53 131.019 98.18 130.749 98.79C130.489 99.4 130.189 99.965 129.849 100.485C129.519 101.005 129.179 101.475 128.829 101.895L128.034 101.385C128.434 100.835 128.814 100.225 129.174 99.555C129.534 98.885 129.824 98.145 130.044 97.335C130.274 96.525 130.389 95.63 130.389 94.65Z" fill="#0048FF"/>
</svg>
