<svg width="188" height="124" viewBox="0 0 188 124" fill="none" xmlns="http://www.w3.org/2000/svg">
<path d="M88.6065 65.988H32.9355V59.212H88.6065V65.988ZM63.7355 25.486V27.18L29.0855 78H17.6895L54.2645 25.486H63.7355ZM91.8405 78L57.1135 27.18L57.1905 25.486H66.6615L103.237 78H91.8405ZM156.516 41.964L165.294 41.348V78H157.594L156.516 68.991V41.964ZM165.294 41.348L161.829 48.278C159.519 47.8673 156.772 47.4823 153.59 47.123C150.407 46.7637 147.07 46.4813 143.58 46.276C140.089 46.0193 136.727 45.891 133.493 45.891C129.437 45.891 125.972 46.3017 123.098 47.123C120.223 47.9443 118.016 49.3047 116.476 51.204C114.936 53.052 114.166 55.5417 114.166 58.673C114.166 63.2417 115.423 66.5013 117.939 68.452C120.454 70.4027 124.432 71.378 129.874 71.378C133.724 71.378 137.574 70.9673 141.424 70.146C145.325 69.2733 149.226 68.144 153.128 66.758C157.029 65.3207 160.853 63.832 164.601 62.292V67.528C162.291 68.76 159.75 70.0433 156.978 71.378C154.257 72.7127 151.331 73.9447 148.2 75.074C145.12 76.152 141.886 77.0503 138.498 77.769C135.161 78.4363 131.747 78.77 128.257 78.77C123.431 78.77 119.299 78.1027 115.86 76.768C112.472 75.382 109.879 73.226 108.083 70.3C106.286 67.3227 105.388 63.524 105.388 58.904C105.388 53.7707 106.594 49.741 109.007 46.815C111.471 43.889 114.859 41.81 119.171 40.578C123.534 39.2947 128.616 38.653 134.417 38.653C140.371 38.653 145.992 38.9353 151.28 39.5C156.567 40.0647 161.238 40.6807 165.294 41.348Z" fill="#0048FF"/>
<path d="M43.6704 87.405L44.4654 87.915C44.0654 88.475 43.6854 89.09 43.3254 89.76C42.9654 90.42 42.6704 91.155 42.4404 91.965C42.2204 92.775 42.1104 93.67 42.1104 94.65C42.1104 95.63 42.2204 96.525 42.4404 97.335C42.6704 98.145 42.9654 98.885 43.3254 99.555C43.6854 100.225 44.0654 100.835 44.4654 101.385L43.6704 101.895C43.3204 101.475 42.9754 101.005 42.6354 100.485C42.3054 99.965 42.0054 99.4 41.7354 98.79C41.4654 98.18 41.2504 97.53 41.0904 96.84C40.9404 96.14 40.8654 95.41 40.8654 94.65C40.8654 93.89 40.9404 93.165 41.0904 92.475C41.2504 91.785 41.4654 91.135 41.7354 90.525C42.0054 89.915 42.3054 89.35 42.6354 88.83C42.9754 88.3 43.3204 87.825 43.6704 87.405ZM53.3346 99H51.9696V88.77H53.6346L61.1646 97.86L68.6796 88.77H70.3146V99H68.9646V90.375L61.8246 99H60.4746L53.3346 90.375V99ZM78.5035 98.115C79.2235 98.115 79.8985 98.085 80.5285 98.025C81.1685 97.955 81.7285 97.88 82.2085 97.8C82.6985 97.72 83.0635 97.65 83.3035 97.59L83.5585 98.58C83.1585 98.68 82.6785 98.775 82.1185 98.865C81.5685 98.955 80.9735 99.025 80.3335 99.075C79.6935 99.135 79.0535 99.165 78.4135 99.165C77.0735 99.165 75.9535 99.045 75.0535 98.805C74.1535 98.555 73.4735 98.145 73.0135 97.575C72.5635 97.005 72.3385 96.235 72.3385 95.265C72.3385 94.305 72.5735 93.54 73.0435 92.97C73.5135 92.4 74.1835 91.99 75.0535 91.74C75.9235 91.49 76.9535 91.365 78.1435 91.365C78.9835 91.365 79.7485 91.425 80.4385 91.545C81.1385 91.665 81.7435 91.86 82.2535 92.13C82.7635 92.4 83.1585 92.765 83.4385 93.225C83.7285 93.685 83.8735 94.255 83.8735 94.935C83.8735 95.005 83.8685 95.085 83.8585 95.175C83.8485 95.265 83.8385 95.355 83.8285 95.445C83.8285 95.525 83.8235 95.59 83.8135 95.64H73.0285V94.845H83.0185L82.6285 95.22C82.6285 94.57 82.4985 94.03 82.2385 93.6C81.9885 93.17 81.5335 92.85 80.8735 92.64C80.2235 92.42 79.2985 92.31 78.0985 92.31C77.0985 92.31 76.2585 92.4 75.5785 92.58C74.9085 92.76 74.4085 93.065 74.0785 93.495C73.7485 93.915 73.5835 94.49 73.5835 95.22C73.5835 95.81 73.6835 96.295 73.8835 96.675C74.0835 97.055 74.3885 97.35 74.7985 97.56C75.2085 97.77 75.7185 97.915 76.3285 97.995C76.9485 98.075 77.6735 98.115 78.5035 98.115ZM96.5157 91.965L96.4557 92.97C96.0157 92.89 95.4907 92.81 94.8807 92.73C94.2707 92.65 93.6307 92.585 92.9607 92.535C92.2907 92.485 91.6407 92.46 91.0107 92.46C90.1507 92.46 89.4107 92.55 88.7907 92.73C88.1807 92.91 87.7057 93.21 87.3657 93.63C87.0357 94.05 86.8707 94.615 86.8707 95.325C86.8707 96.285 87.1457 96.985 87.6957 97.425C88.2457 97.855 89.1057 98.07 90.2757 98.07C91.0557 98.07 91.8207 97.985 92.5707 97.815C93.3207 97.645 94.0557 97.43 94.7757 97.17C95.5057 96.9 96.2057 96.625 96.8757 96.345V97.125C96.4457 97.355 95.9657 97.59 95.4357 97.83C94.9157 98.06 94.3657 98.275 93.7857 98.475C93.2057 98.675 92.6057 98.84 91.9857 98.97C91.3657 99.09 90.7357 99.15 90.0957 99.15C89.1057 99.15 88.2757 99.02 87.6057 98.76C86.9457 98.49 86.4407 98.075 86.0907 97.515C85.7507 96.955 85.5807 96.24 85.5807 95.37C85.5807 94.38 85.8107 93.595 86.2707 93.015C86.7407 92.435 87.3907 92.02 88.2207 91.77C89.0507 91.51 90.0107 91.38 91.1007 91.38C92.1207 91.38 93.1007 91.445 94.0407 91.575C94.9807 91.695 95.8057 91.825 96.5157 91.965ZM95.7207 87.75H97.0107V99H95.9007L95.7207 97.29V87.75ZM100.618 88.515V90.405H99.328V88.515H100.618ZM99.328 99V91.53H100.618V99H99.328ZM102.827 95.565V91.53H104.102V95.445C104.102 95.995 104.217 96.465 104.447 96.855C104.677 97.245 105.052 97.545 105.572 97.755C106.092 97.965 106.777 98.07 107.627 98.07C108.137 98.07 108.722 98.01 109.382 97.89C110.042 97.77 110.737 97.6 111.467 97.38C112.207 97.15 112.952 96.88 113.702 96.57V97.41C113.262 97.62 112.782 97.83 112.262 98.04C111.752 98.25 111.217 98.44 110.657 98.61C110.107 98.78 109.542 98.915 108.962 99.015C108.382 99.125 107.807 99.18 107.237 99.18C106.317 99.18 105.527 99.06 104.867 98.82C104.217 98.57 103.712 98.18 103.352 97.65C103.002 97.12 102.827 96.425 102.827 95.565ZM113.987 91.53V99H112.877L112.712 97.47V91.53H113.987ZM126.507 94.98V99H125.217V95.085C125.217 94.535 125.112 94.065 124.902 93.675C124.702 93.285 124.377 92.985 123.927 92.775C123.487 92.565 122.892 92.46 122.142 92.46C121.662 92.46 121.122 92.52 120.522 92.64C119.932 92.76 119.302 92.93 118.632 93.15C117.962 93.37 117.272 93.625 116.562 93.915V93.075C116.982 92.865 117.427 92.66 117.897 92.46C118.377 92.26 118.872 92.08 119.382 91.92C119.902 91.75 120.422 91.615 120.942 91.515C121.472 91.415 122.007 91.365 122.547 91.365C123.377 91.365 124.082 91.49 124.662 91.74C125.252 91.98 125.707 92.365 126.027 92.895C126.347 93.415 126.507 94.11 126.507 94.98ZM116.262 99V91.545H117.372L117.552 93.075V99H116.262ZM135.462 94.98V99H134.172V95.085C134.172 94.535 134.067 94.065 133.857 93.675C133.657 93.285 133.332 92.985 132.882 92.775C132.442 92.565 131.847 92.46 131.097 92.46C130.597 92.46 130.027 92.52 129.387 92.64C128.757 92.75 128.082 92.915 127.362 93.135C126.652 93.345 125.922 93.605 125.172 93.915V93.075C125.622 92.865 126.097 92.66 126.597 92.46C127.097 92.25 127.617 92.065 128.157 91.905C128.707 91.735 129.257 91.605 129.807 91.515C130.367 91.415 130.932 91.365 131.502 91.365C132.332 91.365 133.037 91.49 133.617 91.74C134.207 91.98 134.662 92.365 134.982 92.895C135.302 93.415 135.462 94.11 135.462 94.98ZM145.528 94.65C145.528 93.67 145.413 92.775 145.183 91.965C144.963 91.155 144.673 90.42 144.313 89.76C143.953 89.09 143.573 88.475 143.173 87.915L143.968 87.405C144.318 87.825 144.658 88.3 144.988 88.83C145.328 89.35 145.628 89.915 145.888 90.525C146.158 91.135 146.373 91.785 146.533 92.475C146.693 93.165 146.773 93.89 146.773 94.65C146.773 95.41 146.693 96.14 146.533 96.84C146.373 97.53 146.158 98.18 145.888 98.79C145.628 99.4 145.328 99.965 144.988 100.485C144.658 101.005 144.318 101.475 143.968 101.895L143.173 101.385C143.573 100.835 143.953 100.225 144.313 99.555C144.673 98.885 144.963 98.145 145.183 97.335C145.413 96.525 145.528 95.63 145.528 94.65Z" fill="#0048FF"/>
</svg>
