{
  "asset": {
    "version": "2.0",
    "generator": "THREE.GLTFExporter r171"
  },
  "scenes": [
    {
      "name": "Scene",
      "nodes": [
        2
      ]
    }
  ],
  "scene": 0,
  "nodes": [
    {
      "rotation": [
        0,
        2.115648156664208e-9,
        0,
        1
      ],
      "scale": [
        1.0000000012614265,
        1.0000000077051703,
        1.0000000077051703
      ],
      "name": "Curve003",
      "extras": {
        "name": "Curve.003"
      },
      "mesh": 0
    },
    {
      "scale": [
        -87.97257229925005,
        87.97257229925005,
        87.97257229925005
      ],
      "name": "logoanimadoglb",
      "extras": {
        "name": "logoanimado.glb"
      },
      "children": [
        0
      ]
    },
    {
      "rotation": [
        4.329780281177466e-17,
        -0.7071067811865475,
        0.7071067811865476,
        4.329780281177467e-17
      ],
      "translation": [
        0,
        0.48274419249418843,
        0
      ],
      "name": "logoanimado.gltf",
      "children": [
        1
      ]
    }
  ],
  "bufferViews": [
    {
      "buffer": 0,
      "byteOffset": 0,
      "byteLength": 16884,
      "target": 34962,
      "byteStride": 12
    },
    {
      "buffer": 0,
      "byteOffset": 16884,
      "byteLength": 16884,
      "target": 34962,
      "byteStride": 12
    },
    {
      "buffer": 0,
      "byteOffset": 33768,
      "byteLength": 11256,
      "target": 34962,
      "byteStride": 8
    },
    {
      "buffer": 0,
      "byteOffset": 45024,
      "byteLength": 8280,
      "target": 34963
    },
    {
      "buffer": 0,
      "byteOffset": 53304,
      "byteLength": 1000
    },
    {
      "buffer": 0,
      "byteOffset": 54304,
      "byteLength": 4000
    }
  ],
  "buffers": [
    {
      "byteLength": 58304,
      "uri": "data:application/octet-stream;base64,"
    }
  ],
  "accessors": [
    {
      "bufferView": 0,
      "componentType": 5126,
      "count": 1407,
      "max": [
        0.005435359198600054,
        0.0010000000474974513,
        0.004407660104334354
      ],
      "min": [
        -0.0035959365777671337,
        -0.0010000000474974513,
        -0.004621728323400021
      ],
      "type": "VEC3"
    },
    {
      "bufferView": 1,
      "componentType": 5126,
      "count": 1407,
      "max": [
        1,
        1,
        1
      ],
      "min": [
        -1,
        -1,
        -1
      ],
      "type": "VEC3"
    },
    {
      "bufferView": 2,
      "componentType": 5126,
      "count": 1407,
      "max": [
        1,
        1
      ],
      "min": [
        0,
        0
      ],
      "type": "VEC2"
    },
    {
      "bufferView": 3,
      "componentType": 5123,
      "count": 4140,
      "max": [
        1406
      ],
      "min": [
        0
      ],
      "type": "SCALAR"
    },
    {
      "bufferView": 4,
      "componentType": 5126,
      "count": 250,
      "max": [
        10.416666984558105
      ],
      "min": [
        0.0416666679084301
      ],
      "type": "SCALAR"
    },
    {
      "bufferView": 5,
      "componentType": 5126,
      "count": 250,
      "max": [
        0.7070927023887634,
        0.7070505023002625,
        0.7071067690849304,
        0.7070927023887634
      ],
      "min": [
        8.432163411953297e-9,
        -0.7071067690849304,
        -0.7070505023002625,
        8.432163411953297e-9
      ],
      "type": "VEC4"
    }
  ],
  "materials": [
    {
      "pbrMetallicRoughness": {
        "metallicFactor": 0,
        "roughnessFactor": 1
      },
      "emissiveFactor": [
        0.057805430183792694,
        0,
        1
      ],
      "alphaMode": "BLEND",
      "doubleSided": true,
      "extensions": {
        "KHR_materials_transmission": {
          "transmissionFactor": 1
        },
        "KHR_materials_volume": {
          "thicknessFactor": 0,
          "attenuationColor": [
            1,
            1,
            1
          ]
        },
        "KHR_materials_ior": {
          "ior": 13.705882352941188
        },
        "KHR_materials_clearcoat": {
          "clearcoatFactor": 1,
          "clearcoatRoughnessFactor": 1
        },
        "KHR_materials_dispersion": {
          "dispersion": 6.5
        },
        "KHR_materials_emissive_strength": {
          "emissiveStrength": 2.24
        }
      }
    }
  ],
  "meshes": [
    {
      "primitives": [
        {
          "mode": 4,
          "attributes": {
            "POSITION": 0,
            "NORMAL": 1,
            "TEXCOORD_0": 2
          },
          "indices": 3,
          "material": 0
        }
      ]
    }
  ],
  "animations": [
    {
      "name": "Animation",
      "samplers": [
        {
          "input": 4,
          "output": 5,
          "interpolation": "LINEAR"
        }
      ],
      "channels": [
        {
          "sampler": 0,
          "target": {
            "node": 0,
            "path": "rotation"
          }
        }
      ]
    }
  ],
  "extensionsUsed": [
    "KHR_materials_transmission",
    "KHR_materials_volume",
    "KHR_materials_ior",
    "KHR_materials_clearcoat",
    "KHR_materials_dispersion",
    "KHR_materials_emissive_strength"
  ]
}